<mxfile host="65bd71144e">
    <diagram id="8q6iTWnjh9-v0iRx-xdA" name="Page-1">
        <mxGraphModel dx="586" dy="610" grid="1" gridSize="10" guides="1" tooltips="1" connect="1" arrows="1" fold="1" page="1" pageScale="1" pageWidth="827" pageHeight="1169" math="0" shadow="0">
            <root>
                <mxCell id="0"/>
                <mxCell id="1" parent="0"/>
                <mxCell id="r3FgKxrRIFfHUx7xBJCp-2" value="" style="endArrow=classic;html=1;rounded=0;fillColor=#d5e8d4;strokeColor=#82b366;endFill=1;startArrow=none;" parent="1" edge="1">
                    <mxGeometry width="50" height="50" relative="1" as="geometry">
                        <mxPoint x="1310" y="320" as="sourcePoint"/>
                        <mxPoint x="1630" y="478" as="targetPoint"/>
                        <Array as="points">
                            <mxPoint x="1330" y="298"/>
                            <mxPoint x="1350" y="320"/>
                            <mxPoint x="1430" y="320"/>
                            <mxPoint x="1470" y="358"/>
                            <mxPoint x="1470" y="438"/>
                            <mxPoint x="1510" y="478"/>
                        </Array>
                    </mxGeometry>
                </mxCell>
                <mxCell id="r3FgKxrRIFfHUx7xBJCp-3" value="" style="endArrow=none;html=1;rounded=0;fillColor=#ffe6cc;strokeColor=#d79b00;endFill=0;entryX=0;entryY=0.5;entryDx=0;entryDy=0;" parent="1" target="r3FgKxrRIFfHUx7xBJCp-15" edge="1">
                    <mxGeometry width="50" height="50" relative="1" as="geometry">
                        <mxPoint x="40" y="360" as="sourcePoint"/>
                        <mxPoint x="300" y="330" as="targetPoint"/>
                    </mxGeometry>
                </mxCell>
                <mxCell id="r3FgKxrRIFfHUx7xBJCp-5" value="" style="endArrow=none;html=1;rounded=0;startArrow=none;" parent="1" source="r3FgKxrRIFfHUx7xBJCp-10" edge="1">
                    <mxGeometry width="50" height="50" relative="1" as="geometry">
                        <mxPoint x="680" y="480" as="sourcePoint"/>
                        <mxPoint x="40" y="280" as="targetPoint"/>
                        <Array as="points"/>
                    </mxGeometry>
                </mxCell>
                <mxCell id="r3FgKxrRIFfHUx7xBJCp-7" value="" style="endArrow=none;html=1;rounded=0;startArrow=none;exitX=0.5;exitY=0;exitDx=0;exitDy=0;" parent="1" source="r3FgKxrRIFfHUx7xBJCp-6" target="r3FgKxrRIFfHUx7xBJCp-6" edge="1">
                    <mxGeometry width="50" height="50" relative="1" as="geometry">
                        <mxPoint x="1229" y="478" as="sourcePoint"/>
                        <mxPoint x="589" y="278" as="targetPoint"/>
                        <Array as="points">
                            <mxPoint x="1029" y="198"/>
                            <mxPoint x="1069" y="158"/>
                            <mxPoint x="1229" y="158"/>
                            <mxPoint x="1269" y="198"/>
                            <mxPoint x="1269" y="238"/>
                            <mxPoint x="1229" y="278"/>
                        </Array>
                    </mxGeometry>
                </mxCell>
                <mxCell id="318" style="edgeStyle=none;html=1;exitX=0.5;exitY=1;exitDx=0;exitDy=0;entryX=0.5;entryY=0;entryDx=0;entryDy=0;endArrow=none;endFill=0;strokeWidth=1;" parent="1" source="r3FgKxrRIFfHUx7xBJCp-6" target="r3FgKxrRIFfHUx7xBJCp-8" edge="1">
                    <mxGeometry relative="1" as="geometry"/>
                </mxCell>
                <mxCell id="r3FgKxrRIFfHUx7xBJCp-6" value="&lt;span style=&quot;color: rgb(0 , 0 , 0) ; font-size: 10px&quot;&gt;PD0&lt;/span&gt;" style="ellipse;whiteSpace=wrap;html=1;aspect=fixed;fillColor=#ffe6cc;strokeColor=#d79b00;" parent="1" vertex="1">
                    <mxGeometry x="1019" y="268" width="20" height="20" as="geometry"/>
                </mxCell>
                <mxCell id="r3FgKxrRIFfHUx7xBJCp-9" value="" style="endArrow=none;html=1;rounded=0;endFill=0;startArrow=classic;startFill=1;" parent="1" target="r3FgKxrRIFfHUx7xBJCp-8" edge="1">
                    <mxGeometry width="50" height="50" relative="1" as="geometry">
                        <mxPoint x="1229" y="478" as="sourcePoint"/>
                        <mxPoint x="1039" y="278" as="targetPoint"/>
                        <Array as="points">
                            <mxPoint x="1069" y="478"/>
                            <mxPoint x="1029" y="438"/>
                        </Array>
                    </mxGeometry>
                </mxCell>
                <mxCell id="r3FgKxrRIFfHUx7xBJCp-10" value="&lt;span style=&quot;font-size: 10px&quot;&gt;PA2&lt;/span&gt;" style="ellipse;whiteSpace=wrap;html=1;aspect=fixed;fillColor=#ffe6cc;strokeColor=#d79b00;fontColor=#000000;" parent="1" vertex="1">
                    <mxGeometry x="308" y="270" width="20" height="20" as="geometry"/>
                </mxCell>
                <mxCell id="r3FgKxrRIFfHUx7xBJCp-11" value="" style="endArrow=none;html=1;rounded=0;startArrow=none;" parent="1" target="r3FgKxrRIFfHUx7xBJCp-10" edge="1">
                    <mxGeometry width="50" height="50" relative="1" as="geometry">
                        <mxPoint x="370" y="280" as="sourcePoint"/>
                        <mxPoint x="40" y="280" as="targetPoint"/>
                        <Array as="points"/>
                    </mxGeometry>
                </mxCell>
                <mxCell id="r3FgKxrRIFfHUx7xBJCp-16" value="" style="endArrow=none;html=1;rounded=0;fillColor=#e1d5e7;strokeColor=#9673a6;endFill=0;entryX=0;entryY=0.5;entryDx=0;entryDy=0;" parent="1" target="141" edge="1">
                    <mxGeometry width="50" height="50" relative="1" as="geometry">
                        <mxPoint x="1229" y="278" as="sourcePoint"/>
                        <mxPoint x="1690" y="158" as="targetPoint"/>
                        <Array as="points">
                            <mxPoint x="1309" y="278"/>
                            <mxPoint x="1329" y="298"/>
                            <mxPoint x="1349" y="278"/>
                            <mxPoint x="1429" y="278"/>
                            <mxPoint x="1469" y="238"/>
                            <mxPoint x="1469" y="198"/>
                            <mxPoint x="1509" y="158"/>
                        </Array>
                    </mxGeometry>
                </mxCell>
                <mxCell id="r3FgKxrRIFfHUx7xBJCp-17" value="&lt;span style=&quot;color: rgb(0 , 0 , 0) ; font-size: 10px&quot;&gt;PH0&lt;/span&gt;" style="ellipse;whiteSpace=wrap;html=1;aspect=fixed;fillColor=#ffe6cc;strokeColor=#d79b00;" parent="1" vertex="1">
                    <mxGeometry x="1319" y="290" width="20" height="20" as="geometry"/>
                </mxCell>
                <mxCell id="r3FgKxrRIFfHUx7xBJCp-19" value="&lt;span style=&quot;color: rgb(0 , 0 , 0) ; font-size: 10px&quot;&gt;PE2&lt;/span&gt;" style="ellipse;whiteSpace=wrap;html=1;aspect=fixed;fillColor=#ffe6cc;strokeColor=#d79b00;" parent="1" vertex="1">
                    <mxGeometry x="1219" y="267" width="20" height="20" as="geometry"/>
                </mxCell>
                <mxCell id="r3FgKxrRIFfHUx7xBJCp-21" value="TA0" style="text;html=1;strokeColor=none;fillColor=none;align=center;verticalAlign=middle;whiteSpace=wrap;rounded=0;" parent="1" vertex="1">
                    <mxGeometry x="137" y="254" width="60" height="30" as="geometry"/>
                </mxCell>
                <mxCell id="r3FgKxrRIFfHUx7xBJCp-22" value="TA1" style="text;html=1;strokeColor=none;fillColor=none;align=center;verticalAlign=middle;whiteSpace=wrap;rounded=0;" parent="1" vertex="1">
                    <mxGeometry x="137" y="294.25" width="60" height="30" as="geometry"/>
                </mxCell>
                <mxCell id="r3FgKxrRIFfHUx7xBJCp-23" value="TA2" style="text;html=1;strokeColor=none;fillColor=none;align=center;verticalAlign=middle;whiteSpace=wrap;rounded=0;" parent="1" vertex="1">
                    <mxGeometry x="137" y="331" width="60" height="30" as="geometry"/>
                </mxCell>
                <mxCell id="r3FgKxrRIFfHUx7xBJCp-24" value="TB0" style="text;html=1;strokeColor=none;fillColor=none;align=center;verticalAlign=middle;whiteSpace=wrap;rounded=0;" parent="1" vertex="1">
                    <mxGeometry x="137" y="454" width="60" height="30" as="geometry"/>
                </mxCell>
                <mxCell id="r3FgKxrRIFfHUx7xBJCp-27" value="TA4" style="text;html=1;strokeColor=none;fillColor=none;align=center;verticalAlign=middle;whiteSpace=wrap;rounded=0;" parent="1" vertex="1">
                    <mxGeometry x="265" y="321" width="30" height="18" as="geometry"/>
                </mxCell>
                <mxCell id="r3FgKxrRIFfHUx7xBJCp-31" value="TA6" style="text;html=1;strokeColor=none;fillColor=none;align=center;verticalAlign=middle;whiteSpace=wrap;rounded=0;" parent="1" vertex="1">
                    <mxGeometry x="367" y="253.25" width="30" height="14" as="geometry"/>
                </mxCell>
                <mxCell id="r3FgKxrRIFfHUx7xBJCp-32" value="TE0" style="text;html=1;strokeColor=none;fillColor=none;align=center;verticalAlign=middle;whiteSpace=wrap;rounded=0;rotation=-90;" parent="1" vertex="1">
                    <mxGeometry x="992" y="213" width="36" height="13" as="geometry"/>
                </mxCell>
                <mxCell id="r3FgKxrRIFfHUx7xBJCp-33" value="TD2" style="text;html=1;strokeColor=none;fillColor=none;align=center;verticalAlign=middle;whiteSpace=wrap;rounded=0;" parent="1" vertex="1">
                    <mxGeometry x="1100" y="257" width="60" height="30" as="geometry"/>
                </mxCell>
                <mxCell id="r3FgKxrRIFfHUx7xBJCp-34" value="TD3" style="text;html=1;strokeColor=none;fillColor=none;align=center;verticalAlign=middle;whiteSpace=wrap;rounded=0;" parent="1" vertex="1">
                    <mxGeometry x="1100" y="293" width="60" height="30" as="geometry"/>
                </mxCell>
                <mxCell id="r3FgKxrRIFfHUx7xBJCp-37" value="TG0" style="text;html=1;strokeColor=none;fillColor=none;align=center;verticalAlign=middle;whiteSpace=wrap;rounded=0;" parent="1" vertex="1">
                    <mxGeometry x="1267" y="261" width="35" height="19" as="geometry"/>
                </mxCell>
                <mxCell id="r3FgKxrRIFfHUx7xBJCp-38" value="TH1" style="text;html=1;strokeColor=none;fillColor=none;align=center;verticalAlign=middle;whiteSpace=wrap;rounded=0;" parent="1" vertex="1">
                    <mxGeometry x="1473" y="391" width="30" height="20" as="geometry"/>
                </mxCell>
                <mxCell id="146" style="edgeStyle=none;html=1;exitX=1;exitY=0;exitDx=0;exitDy=0;entryX=0;entryY=1;entryDx=0;entryDy=0;fontSize=10;fontColor=#FFFFFF;endArrow=classic;endFill=1;fillColor=#ffe6cc;strokeColor=#d79b00;rounded=0;" parent="1" source="r3FgKxrRIFfHUx7xBJCp-15" target="r3FgKxrRIFfHUx7xBJCp-12" edge="1">
                    <mxGeometry relative="1" as="geometry"/>
                </mxCell>
                <mxCell id="r3FgKxrRIFfHUx7xBJCp-15" value="&lt;span style=&quot;font-size: 10px&quot;&gt;PA1&lt;/span&gt;" style="ellipse;whiteSpace=wrap;html=1;aspect=fixed;fillColor=#ffe6cc;strokeColor=#d79b00;fontColor=#000000;" parent="1" vertex="1">
                    <mxGeometry x="249" y="350" width="20" height="20" as="geometry"/>
                </mxCell>
                <mxCell id="r3FgKxrRIFfHUx7xBJCp-39" value="" style="endArrow=classic;html=1;rounded=0;fillColor=#f8cecc;strokeColor=#b85450;strokeWidth=1;endFill=1;" parent="1" target="r3FgKxrRIFfHUx7xBJCp-15" edge="1">
                    <mxGeometry width="50" height="50" relative="1" as="geometry">
                        <mxPoint x="40" y="480" as="sourcePoint"/>
                        <mxPoint x="200" y="360" as="targetPoint"/>
                        <Array as="points">
                            <mxPoint x="220" y="480"/>
                            <mxPoint x="259" y="440"/>
                        </Array>
                    </mxGeometry>
                </mxCell>
                <mxCell id="9" value="&lt;span style=&quot;font-size: 10px&quot;&gt;SA1&lt;/span&gt;" style="ellipse;whiteSpace=wrap;html=1;fillColor=#1ba1e2;fontColor=#ffffff;strokeColor=#006EAF;direction=east;" parent="1" vertex="1">
                    <mxGeometry x="224" y="331" width="22" height="16" as="geometry"/>
                </mxCell>
                <mxCell id="10" value="" style="endArrow=none;html=1;entryX=0;entryY=0.5;entryDx=0;entryDy=0;fillColor=#1ba1e2;strokeColor=#006EAF;exitX=1;exitY=0.75;exitDx=0;exitDy=0;" parent="1" target="9" edge="1">
                    <mxGeometry width="50" height="50" relative="1" as="geometry">
                        <mxPoint x="214" y="358.5" as="sourcePoint"/>
                        <mxPoint x="296" y="337" as="targetPoint"/>
                        <Array as="points">
                            <mxPoint x="214" y="339"/>
                        </Array>
                    </mxGeometry>
                </mxCell>
                <mxCell id="27" value="&lt;span style=&quot;font-size: 10px&quot;&gt;SA3&lt;/span&gt;" style="ellipse;whiteSpace=wrap;html=1;fillColor=#1ba1e2;fontColor=#ffffff;strokeColor=#006EAF;direction=east;" parent="1" vertex="1">
                    <mxGeometry x="330" y="290" width="22" height="16" as="geometry"/>
                </mxCell>
                <mxCell id="28" value="" style="endArrow=none;html=1;entryX=1;entryY=0.5;entryDx=0;entryDy=0;fillColor=#1ba1e2;strokeColor=#006EAF;" parent="1" target="27" edge="1">
                    <mxGeometry width="50" height="50" relative="1" as="geometry">
                        <mxPoint x="361" y="280" as="sourcePoint"/>
                        <mxPoint x="363" y="270" as="targetPoint"/>
                        <Array as="points">
                            <mxPoint x="361" y="298"/>
                        </Array>
                    </mxGeometry>
                </mxCell>
                <mxCell id="31" value="&lt;font style=&quot;font-size: 10px&quot;&gt;SB0&lt;/font&gt;" style="ellipse;whiteSpace=wrap;html=1;fillColor=#1ba1e2;fontColor=#ffffff;strokeColor=#006EAF;direction=east;rotation=-90;" parent="1" vertex="1">
                    <mxGeometry x="227" y="370" width="22" height="16" as="geometry"/>
                </mxCell>
                <mxCell id="34" value="" style="endArrow=none;html=1;exitX=0;exitY=0.5;exitDx=0;exitDy=0;fillColor=#1ba1e2;strokeColor=#006EAF;" parent="1" source="31" edge="1">
                    <mxGeometry width="50" height="50" relative="1" as="geometry">
                        <mxPoint x="229" y="380" as="sourcePoint"/>
                        <mxPoint x="259" y="400" as="targetPoint"/>
                        <Array as="points">
                            <mxPoint x="238" y="400"/>
                        </Array>
                    </mxGeometry>
                </mxCell>
                <mxCell id="44" value="&lt;span style=&quot;font-size: 10px&quot;&gt;SE0&lt;/span&gt;" style="ellipse;whiteSpace=wrap;html=1;fillColor=#1ba1e2;fontColor=#ffffff;strokeColor=#006EAF;direction=east;rotation=-90;" parent="1" vertex="1">
                    <mxGeometry x="1040" y="232" width="22" height="16" as="geometry"/>
                </mxCell>
                <mxCell id="45" value="" style="endArrow=none;html=1;exitX=1;exitY=0.5;exitDx=0;exitDy=0;fillColor=#1ba1e2;strokeColor=#006EAF;" parent="1" source="44" edge="1">
                    <mxGeometry width="50" height="50" relative="1" as="geometry">
                        <mxPoint x="1070" y="288" as="sourcePoint"/>
                        <mxPoint x="1030" y="218" as="targetPoint"/>
                        <Array as="points">
                            <mxPoint x="1051" y="218"/>
                        </Array>
                    </mxGeometry>
                </mxCell>
                <mxCell id="53" value="&lt;font style=&quot;font-size: 10px&quot;&gt;SA0&lt;/font&gt;" style="ellipse;whiteSpace=wrap;html=1;fillColor=#1ba1e2;fontColor=#ffffff;strokeColor=#006EAF;direction=east;" parent="1" vertex="1">
                    <mxGeometry x="227" y="294" width="22" height="16" as="geometry"/>
                </mxCell>
                <mxCell id="54" value="" style="endArrow=none;html=1;entryX=0;entryY=0.5;entryDx=0;entryDy=0;fillColor=#1ba1e2;strokeColor=#006EAF;" parent="1" target="53" edge="1">
                    <mxGeometry width="50" height="50" relative="1" as="geometry">
                        <mxPoint x="217" y="320" as="sourcePoint"/>
                        <mxPoint x="299" y="300" as="targetPoint"/>
                        <Array as="points">
                            <mxPoint x="217" y="302"/>
                        </Array>
                    </mxGeometry>
                </mxCell>
                <mxCell id="55" value="&lt;span style=&quot;font-size: 10px&quot;&gt;SA2&lt;/span&gt;" style="ellipse;whiteSpace=wrap;html=1;fillColor=#1ba1e2;fontColor=#ffffff;strokeColor=#006EAF;direction=east;" parent="1" vertex="1">
                    <mxGeometry x="286" y="252" width="22" height="16" as="geometry"/>
                </mxCell>
                <mxCell id="56" value="" style="endArrow=none;html=1;entryX=0;entryY=0.5;entryDx=0;entryDy=0;fillColor=#1ba1e2;strokeColor=#006EAF;exitX=1;exitY=0.75;exitDx=0;exitDy=0;" parent="1" target="55" edge="1">
                    <mxGeometry width="50" height="50" relative="1" as="geometry">
                        <mxPoint x="276" y="279.5" as="sourcePoint"/>
                        <mxPoint x="358" y="258" as="targetPoint"/>
                        <Array as="points">
                            <mxPoint x="276" y="260"/>
                        </Array>
                    </mxGeometry>
                </mxCell>
                <mxCell id="58" value="&lt;span style=&quot;font-size: 10px&quot;&gt;SA4&lt;/span&gt;" style="ellipse;whiteSpace=wrap;html=1;fillColor=#1ba1e2;fontColor=#ffffff;strokeColor=#006EAF;direction=east;" parent="1" vertex="1">
                    <mxGeometry x="330" y="328" width="22" height="16" as="geometry"/>
                </mxCell>
                <mxCell id="59" value="" style="endArrow=none;html=1;entryX=1;entryY=0.5;entryDx=0;entryDy=0;fillColor=#1ba1e2;strokeColor=#006EAF;" parent="1" target="58" edge="1">
                    <mxGeometry width="50" height="50" relative="1" as="geometry">
                        <mxPoint x="361" y="320" as="sourcePoint"/>
                        <mxPoint x="363" y="308" as="targetPoint"/>
                        <Array as="points">
                            <mxPoint x="361" y="336"/>
                        </Array>
                    </mxGeometry>
                </mxCell>
                <mxCell id="60" value="&lt;span style=&quot;font-size: 10px&quot;&gt;SD2&lt;/span&gt;" style="ellipse;whiteSpace=wrap;html=1;fillColor=#1ba1e2;fontColor=#ffffff;strokeColor=#006EAF;direction=east;" parent="1" vertex="1">
                    <mxGeometry x="970" y="250" width="22" height="16" as="geometry"/>
                </mxCell>
                <mxCell id="61" value="" style="endArrow=none;html=1;entryX=0;entryY=0.5;entryDx=0;entryDy=0;fillColor=#1ba1e2;strokeColor=#006EAF;exitX=1;exitY=0.75;exitDx=0;exitDy=0;" parent="1" target="60" edge="1">
                    <mxGeometry width="50" height="50" relative="1" as="geometry">
                        <mxPoint x="960" y="277.5" as="sourcePoint"/>
                        <mxPoint x="1042" y="256" as="targetPoint"/>
                        <Array as="points">
                            <mxPoint x="960" y="258"/>
                        </Array>
                    </mxGeometry>
                </mxCell>
                <mxCell id="62" value="&lt;span style=&quot;font-size: 10px&quot;&gt;SD3&lt;/span&gt;" style="ellipse;whiteSpace=wrap;html=1;fillColor=#1ba1e2;fontColor=#ffffff;strokeColor=#006EAF;direction=east;" parent="1" vertex="1">
                    <mxGeometry x="970" y="290" width="22" height="16" as="geometry"/>
                </mxCell>
                <mxCell id="63" value="" style="endArrow=none;html=1;entryX=0;entryY=0.5;entryDx=0;entryDy=0;fillColor=#1ba1e2;strokeColor=#006EAF;" parent="1" target="62" edge="1">
                    <mxGeometry width="50" height="50" relative="1" as="geometry">
                        <mxPoint x="960" y="320" as="sourcePoint"/>
                        <mxPoint x="1042" y="296" as="targetPoint"/>
                        <Array as="points">
                            <mxPoint x="960" y="298"/>
                        </Array>
                    </mxGeometry>
                </mxCell>
                <mxCell id="64" value="&lt;span style=&quot;font-size: 10px&quot;&gt;SD6&lt;/span&gt;" style="ellipse;whiteSpace=wrap;html=1;fillColor=#1ba1e2;fontColor=#ffffff;strokeColor=#006EAF;direction=east;" parent="1" vertex="1">
                    <mxGeometry x="1197" y="250" width="22" height="16" as="geometry"/>
                </mxCell>
                <mxCell id="65" value="" style="endArrow=none;html=1;entryX=0;entryY=0.5;entryDx=0;entryDy=0;fillColor=#1ba1e2;strokeColor=#006EAF;exitX=1;exitY=0.75;exitDx=0;exitDy=0;" parent="1" target="64" edge="1">
                    <mxGeometry width="50" height="50" relative="1" as="geometry">
                        <mxPoint x="1187" y="277.5" as="sourcePoint"/>
                        <mxPoint x="1269" y="256" as="targetPoint"/>
                        <Array as="points">
                            <mxPoint x="1187" y="258"/>
                        </Array>
                    </mxGeometry>
                </mxCell>
                <mxCell id="66" value="&lt;span style=&quot;font-size: 10px&quot;&gt;SH0&lt;/span&gt;" style="ellipse;whiteSpace=wrap;html=1;fillColor=#1ba1e2;fontColor=#ffffff;strokeColor=#006EAF;direction=east;" parent="1" vertex="1">
                    <mxGeometry x="1290" y="291.25" width="22" height="16" as="geometry"/>
                </mxCell>
                <mxCell id="67" value="" style="endArrow=none;html=1;entryX=0;entryY=0.5;entryDx=0;entryDy=0;fillColor=#1ba1e2;strokeColor=#006EAF;exitX=1;exitY=0.75;exitDx=0;exitDy=0;" parent="1" target="66" edge="1">
                    <mxGeometry width="50" height="50" relative="1" as="geometry">
                        <mxPoint x="1280" y="318.75" as="sourcePoint"/>
                        <mxPoint x="1362" y="297.25" as="targetPoint"/>
                        <Array as="points">
                            <mxPoint x="1280" y="299.25"/>
                        </Array>
                    </mxGeometry>
                </mxCell>
                <mxCell id="68" value="&lt;span style=&quot;font-size: 10px&quot;&gt;SG0&lt;/span&gt;" style="ellipse;whiteSpace=wrap;html=1;fillColor=#1ba1e2;fontColor=#ffffff;strokeColor=#006EAF;direction=east;" parent="1" vertex="1">
                    <mxGeometry x="1310" y="250" width="22" height="16" as="geometry"/>
                </mxCell>
                <mxCell id="69" value="" style="endArrow=none;html=1;entryX=0;entryY=0.5;entryDx=0;entryDy=0;fillColor=#1ba1e2;strokeColor=#006EAF;exitX=1;exitY=0.75;exitDx=0;exitDy=0;" parent="1" target="68" edge="1">
                    <mxGeometry width="50" height="50" relative="1" as="geometry">
                        <mxPoint x="1300" y="277.5" as="sourcePoint"/>
                        <mxPoint x="1382" y="256" as="targetPoint"/>
                        <Array as="points">
                            <mxPoint x="1300" y="258"/>
                        </Array>
                    </mxGeometry>
                </mxCell>
                <mxCell id="71" value="&lt;span style=&quot;font-size: 10px&quot;&gt;SD5&lt;/span&gt;" style="ellipse;whiteSpace=wrap;html=1;fillColor=#1ba1e2;fontColor=#ffffff;strokeColor=#006EAF;direction=east;" parent="1" vertex="1">
                    <mxGeometry x="1060" y="328" width="22" height="16" as="geometry"/>
                </mxCell>
                <mxCell id="72" value="" style="endArrow=none;html=1;entryX=1;entryY=0.5;entryDx=0;entryDy=0;fillColor=#1ba1e2;strokeColor=#006EAF;" parent="1" target="71" edge="1">
                    <mxGeometry width="50" height="50" relative="1" as="geometry">
                        <mxPoint x="1091" y="320" as="sourcePoint"/>
                        <mxPoint x="1093" y="308" as="targetPoint"/>
                        <Array as="points">
                            <mxPoint x="1091" y="336"/>
                        </Array>
                    </mxGeometry>
                </mxCell>
                <mxCell id="73" value="&lt;span style=&quot;font-size: 10px&quot;&gt;SD4&lt;/span&gt;" style="ellipse;whiteSpace=wrap;html=1;fillColor=#1ba1e2;fontColor=#ffffff;strokeColor=#006EAF;direction=east;" parent="1" vertex="1">
                    <mxGeometry x="1058.5" y="289" width="22" height="16" as="geometry"/>
                </mxCell>
                <mxCell id="74" value="" style="endArrow=none;html=1;entryX=1;entryY=0.5;entryDx=0;entryDy=0;fillColor=#1ba1e2;strokeColor=#006EAF;" parent="1" target="73" edge="1">
                    <mxGeometry width="50" height="50" relative="1" as="geometry">
                        <mxPoint x="1089.4999999999998" y="279" as="sourcePoint"/>
                        <mxPoint x="1091.5" y="269" as="targetPoint"/>
                        <Array as="points">
                            <mxPoint x="1089.5" y="297"/>
                        </Array>
                    </mxGeometry>
                </mxCell>
                <mxCell id="75" value="&lt;span style=&quot;font-size: 10px&quot;&gt;SH1&lt;/span&gt;" style="ellipse;whiteSpace=wrap;html=1;fillColor=#1ba1e2;fontColor=#ffffff;strokeColor=#006EAF;direction=east;" parent="1" vertex="1">
                    <mxGeometry x="1352.5" y="327" width="22" height="16" as="geometry"/>
                </mxCell>
                <mxCell id="76" value="" style="endArrow=none;html=1;entryX=1;entryY=0.5;entryDx=0;entryDy=0;fillColor=#1ba1e2;strokeColor=#006EAF;" parent="1" target="75" edge="1">
                    <mxGeometry width="50" height="50" relative="1" as="geometry">
                        <mxPoint x="1383.4999999999998" y="317" as="sourcePoint"/>
                        <mxPoint x="1385.5" y="307" as="targetPoint"/>
                        <Array as="points">
                            <mxPoint x="1383.5" y="335"/>
                        </Array>
                    </mxGeometry>
                </mxCell>
                <mxCell id="77" value="&lt;span style=&quot;font-size: 10px&quot;&gt;SG1&lt;/span&gt;" style="ellipse;whiteSpace=wrap;html=1;fillColor=#1ba1e2;fontColor=#ffffff;strokeColor=#006EAF;direction=east;" parent="1" vertex="1">
                    <mxGeometry x="1351" y="288" width="22" height="16" as="geometry"/>
                </mxCell>
                <mxCell id="78" value="" style="endArrow=none;html=1;entryX=1;entryY=0.5;entryDx=0;entryDy=0;fillColor=#1ba1e2;strokeColor=#006EAF;" parent="1" target="77" edge="1">
                    <mxGeometry width="50" height="50" relative="1" as="geometry">
                        <mxPoint x="1381.9999999999998" y="278" as="sourcePoint"/>
                        <mxPoint x="1384" y="268" as="targetPoint"/>
                        <Array as="points">
                            <mxPoint x="1382" y="296"/>
                        </Array>
                    </mxGeometry>
                </mxCell>
                <mxCell id="79" value="&lt;span style=&quot;font-size: 10px&quot;&gt;SD7&lt;br&gt;&lt;/span&gt;" style="ellipse;whiteSpace=wrap;html=1;fillColor=#1ba1e2;fontColor=#ffffff;strokeColor=#006EAF;direction=east;" parent="1" vertex="1">
                    <mxGeometry x="1241" y="287" width="22" height="16" as="geometry"/>
                </mxCell>
                <mxCell id="80" value="" style="endArrow=none;html=1;entryX=1;entryY=0.5;entryDx=0;entryDy=0;fillColor=#1ba1e2;strokeColor=#006EAF;" parent="1" target="79" edge="1">
                    <mxGeometry width="50" height="50" relative="1" as="geometry">
                        <mxPoint x="1271.9999999999998" y="277" as="sourcePoint"/>
                        <mxPoint x="1274" y="267" as="targetPoint"/>
                        <Array as="points">
                            <mxPoint x="1272" y="295"/>
                        </Array>
                    </mxGeometry>
                </mxCell>
                <mxCell id="81" value="&lt;span style=&quot;font-size: 10px&quot;&gt;SF0&lt;/span&gt;" style="ellipse;whiteSpace=wrap;html=1;fillColor=#1ba1e2;fontColor=#ffffff;strokeColor=#006EAF;direction=east;rotation=-90;" parent="1" vertex="1">
                    <mxGeometry x="997" y="335" width="22" height="16" as="geometry"/>
                </mxCell>
                <mxCell id="82" value="" style="endArrow=none;html=1;exitX=0;exitY=0.5;exitDx=0;exitDy=0;fillColor=#1ba1e2;strokeColor=#006EAF;" parent="1" source="81" edge="1">
                    <mxGeometry width="50" height="50" relative="1" as="geometry">
                        <mxPoint x="999" y="345" as="sourcePoint"/>
                        <mxPoint x="1029" y="364.9999999999999" as="targetPoint"/>
                        <Array as="points">
                            <mxPoint x="1008" y="365"/>
                        </Array>
                    </mxGeometry>
                </mxCell>
                <mxCell id="83" value="&lt;span style=&quot;font-size: 10px&quot;&gt;SE7&lt;/span&gt;" style="ellipse;whiteSpace=wrap;html=1;fillColor=#1ba1e2;fontColor=#ffffff;strokeColor=#006EAF;direction=east;rotation=-45;" parent="1" vertex="1">
                    <mxGeometry x="1250" y="257" width="22" height="16" as="geometry"/>
                </mxCell>
                <mxCell id="84" value="" style="endArrow=none;html=1;exitX=1;exitY=0.5;exitDx=0;exitDy=0;fillColor=#1ba1e2;strokeColor=#006EAF;" parent="1" source="83" edge="1">
                    <mxGeometry width="50" height="50" relative="1" as="geometry">
                        <mxPoint x="1260" y="298" as="sourcePoint"/>
                        <mxPoint x="1270" y="238" as="targetPoint"/>
                        <Array as="points">
                            <mxPoint x="1280" y="248"/>
                        </Array>
                    </mxGeometry>
                </mxCell>
                <mxCell id="89" value="" style="rounded=0;whiteSpace=wrap;html=1;labelBackgroundColor=none;fontColor=#FFFFFF;strokeColor=#FF6666;fillColor=none;align=left;" parent="1" vertex="1">
                    <mxGeometry x="50" y="226" width="70" height="144" as="geometry"/>
                </mxCell>
                <mxCell id="90" value="West station" style="text;html=1;strokeColor=none;fillColor=none;align=center;verticalAlign=middle;whiteSpace=wrap;rounded=0;labelBackgroundColor=none;fontColor=#FF9999;" parent="1" vertex="1">
                    <mxGeometry x="50" y="226" width="70" height="30" as="geometry"/>
                </mxCell>
                <mxCell id="92" value="&lt;span style=&quot;font-size: 10px&quot;&gt;Platform 1&lt;/span&gt;" style="text;html=1;strokeColor=none;fillColor=none;align=center;verticalAlign=middle;whiteSpace=wrap;rounded=0;labelBackgroundColor=none;fontColor=#FFFFFF;" parent="1" vertex="1">
                    <mxGeometry x="55" y="257" width="60" height="30" as="geometry"/>
                </mxCell>
                <mxCell id="93" value="&lt;span style=&quot;font-size: 10px&quot;&gt;Platform 2&lt;/span&gt;" style="text;html=1;strokeColor=none;fillColor=none;align=center;verticalAlign=middle;whiteSpace=wrap;rounded=0;labelBackgroundColor=none;fontColor=#FFFFFF;" parent="1" vertex="1">
                    <mxGeometry x="55" y="299" width="60" height="30" as="geometry"/>
                </mxCell>
                <mxCell id="94" value="&lt;span style=&quot;font-size: 10px&quot;&gt;Platform 3&lt;/span&gt;" style="text;html=1;strokeColor=none;fillColor=none;align=center;verticalAlign=middle;whiteSpace=wrap;rounded=0;labelBackgroundColor=none;fontColor=#FFFFFF;" parent="1" vertex="1">
                    <mxGeometry x="55" y="337" width="60" height="30" as="geometry"/>
                </mxCell>
                <mxCell id="95" value="" style="rounded=0;whiteSpace=wrap;html=1;labelBackgroundColor=none;fontColor=#FFFFFF;strokeColor=#FF6666;fillColor=none;align=left;" parent="1" vertex="1">
                    <mxGeometry x="45" y="429" width="70" height="60" as="geometry"/>
                </mxCell>
                <mxCell id="96" value="South-West station" style="text;html=1;strokeColor=none;fillColor=none;align=center;verticalAlign=middle;whiteSpace=wrap;rounded=0;labelBackgroundColor=none;fontColor=#FF9999;" parent="1" vertex="1">
                    <mxGeometry x="45" y="431" width="70" height="30" as="geometry"/>
                </mxCell>
                <mxCell id="97" value="&lt;span style=&quot;font-size: 10px&quot;&gt;Platform&lt;br&gt;&lt;/span&gt;" style="text;html=1;strokeColor=none;fillColor=none;align=center;verticalAlign=middle;whiteSpace=wrap;rounded=0;labelBackgroundColor=none;fontColor=#FFFFFF;" parent="1" vertex="1">
                    <mxGeometry x="50" y="459" width="60" height="30" as="geometry"/>
                </mxCell>
                <mxCell id="98" value="" style="rounded=0;whiteSpace=wrap;html=1;labelBackgroundColor=none;fontColor=#FFFFFF;strokeColor=#FF6666;fillColor=none;align=left;" parent="1" vertex="1">
                    <mxGeometry x="1149" y="426" width="70" height="60" as="geometry"/>
                </mxCell>
                <mxCell id="99" value="South station" style="text;html=1;strokeColor=none;fillColor=none;align=center;verticalAlign=middle;whiteSpace=wrap;rounded=0;labelBackgroundColor=none;fontColor=#FF9999;" parent="1" vertex="1">
                    <mxGeometry x="1149" y="426" width="70" height="30" as="geometry"/>
                </mxCell>
                <mxCell id="100" value="&lt;span style=&quot;font-size: 10px&quot;&gt;Platform&lt;br&gt;&lt;/span&gt;" style="text;html=1;strokeColor=none;fillColor=none;align=center;verticalAlign=middle;whiteSpace=wrap;rounded=0;labelBackgroundColor=none;fontColor=#FFFFFF;" parent="1" vertex="1">
                    <mxGeometry x="1154" y="456" width="60" height="30" as="geometry"/>
                </mxCell>
                <mxCell id="101" value="" style="rounded=0;whiteSpace=wrap;html=1;labelBackgroundColor=none;fontColor=#FFFFFF;strokeColor=#FF6666;fillColor=none;align=left;" parent="1" vertex="1">
                    <mxGeometry x="1541" y="424" width="70" height="60" as="geometry"/>
                </mxCell>
                <mxCell id="102" value="South-East station" style="text;html=1;strokeColor=none;fillColor=none;align=center;verticalAlign=middle;whiteSpace=wrap;rounded=0;labelBackgroundColor=none;fontColor=#FF9999;" parent="1" vertex="1">
                    <mxGeometry x="1541" y="424" width="70" height="30" as="geometry"/>
                </mxCell>
                <mxCell id="103" value="&lt;span style=&quot;font-size: 10px&quot;&gt;Platform&lt;br&gt;&lt;/span&gt;" style="text;html=1;strokeColor=none;fillColor=none;align=center;verticalAlign=middle;whiteSpace=wrap;rounded=0;labelBackgroundColor=none;fontColor=#FFFFFF;" parent="1" vertex="1">
                    <mxGeometry x="1546" y="454" width="60" height="30" as="geometry"/>
                </mxCell>
                <mxCell id="104" value="" style="rounded=0;whiteSpace=wrap;html=1;labelBackgroundColor=none;fontColor=#FFFFFF;strokeColor=#FF6666;fillColor=none;align=left;" parent="1" vertex="1">
                    <mxGeometry x="1596" y="102" width="70" height="104" as="geometry"/>
                </mxCell>
                <mxCell id="105" value="North-East station" style="text;html=1;strokeColor=none;fillColor=none;align=center;verticalAlign=middle;whiteSpace=wrap;rounded=0;labelBackgroundColor=none;fontColor=#FF9999;" parent="1" vertex="1">
                    <mxGeometry x="1596" y="102" width="70" height="30" as="geometry"/>
                </mxCell>
                <mxCell id="106" value="&lt;span style=&quot;font-size: 10px&quot;&gt;Platform 1&lt;br&gt;&lt;/span&gt;" style="text;html=1;strokeColor=none;fillColor=none;align=center;verticalAlign=middle;whiteSpace=wrap;rounded=0;labelBackgroundColor=none;fontColor=#FFFFFF;" parent="1" vertex="1">
                    <mxGeometry x="1607" y="133" width="49" height="18" as="geometry"/>
                </mxCell>
                <mxCell id="107" value="" style="rounded=0;whiteSpace=wrap;html=1;labelBackgroundColor=none;fontColor=#FFFFFF;strokeColor=#FF6666;fillColor=none;align=left;" parent="1" vertex="1">
                    <mxGeometry x="1121" y="102" width="70" height="88" as="geometry"/>
                </mxCell>
                <mxCell id="108" value="North station" style="text;html=1;strokeColor=none;fillColor=none;align=center;verticalAlign=middle;whiteSpace=wrap;rounded=0;labelBackgroundColor=none;fontColor=#FF9999;" parent="1" vertex="1">
                    <mxGeometry x="1121" y="102" width="70" height="30" as="geometry"/>
                </mxCell>
                <mxCell id="109" value="&lt;span style=&quot;font-size: 10px&quot;&gt;Platform&lt;br&gt;&lt;/span&gt;" style="text;html=1;strokeColor=none;fillColor=none;align=center;verticalAlign=middle;whiteSpace=wrap;rounded=0;labelBackgroundColor=none;fontColor=#FFFFFF;" parent="1" vertex="1">
                    <mxGeometry x="1126" y="156" width="60" height="30" as="geometry"/>
                </mxCell>
                <mxCell id="110" value="" style="rounded=0;whiteSpace=wrap;html=1;labelBackgroundColor=none;fontColor=#FFFFFF;strokeColor=#FF6666;fillColor=none;align=left;" parent="1" vertex="1">
                    <mxGeometry x="850" y="224" width="70" height="110" as="geometry"/>
                </mxCell>
                <mxCell id="111" value="Mid-east station" style="text;html=1;strokeColor=none;fillColor=none;align=center;verticalAlign=middle;whiteSpace=wrap;rounded=0;labelBackgroundColor=none;fontColor=#FF9999;" parent="1" vertex="1">
                    <mxGeometry x="850" y="224" width="70" height="30" as="geometry"/>
                </mxCell>
                <mxCell id="112" value="&lt;span style=&quot;font-size: 10px&quot;&gt;Platform 1&lt;br&gt;&lt;/span&gt;" style="text;html=1;strokeColor=none;fillColor=none;align=center;verticalAlign=middle;whiteSpace=wrap;rounded=0;labelBackgroundColor=none;fontColor=#FFFFFF;" parent="1" vertex="1">
                    <mxGeometry x="855" y="254" width="60" height="30" as="geometry"/>
                </mxCell>
                <mxCell id="113" value="&lt;span style=&quot;font-size: 10px&quot;&gt;Platform 2&lt;br&gt;&lt;/span&gt;" style="text;html=1;strokeColor=none;fillColor=none;align=center;verticalAlign=middle;whiteSpace=wrap;rounded=0;labelBackgroundColor=none;fontColor=#FFFFFF;" parent="1" vertex="1">
                    <mxGeometry x="855" y="295" width="60" height="30" as="geometry"/>
                </mxCell>
                <mxCell id="114" value="" style="rounded=0;whiteSpace=wrap;html=1;labelBackgroundColor=none;fontColor=#FFFFFF;strokeColor=#FF6666;fillColor=none;align=left;" parent="1" vertex="1">
                    <mxGeometry x="522" y="210" width="70" height="140" as="geometry"/>
                </mxCell>
                <mxCell id="115" value="Mid-west station" style="text;html=1;strokeColor=none;fillColor=none;align=center;verticalAlign=middle;whiteSpace=wrap;rounded=0;labelBackgroundColor=none;fontColor=#FF9999;" parent="1" vertex="1">
                    <mxGeometry x="522" y="211" width="70" height="30" as="geometry"/>
                </mxCell>
                <mxCell id="116" value="&lt;span style=&quot;font-size: 10px&quot;&gt;Platform 1&lt;br&gt;&lt;/span&gt;" style="text;html=1;strokeColor=none;fillColor=none;align=center;verticalAlign=middle;whiteSpace=wrap;rounded=0;labelBackgroundColor=none;fontColor=#FFFFFF;" parent="1" vertex="1">
                    <mxGeometry x="527" y="257" width="60" height="30" as="geometry"/>
                </mxCell>
                <mxCell id="117" value="&lt;span style=&quot;font-size: 10px&quot;&gt;Platform 2&lt;br&gt;&lt;/span&gt;" style="text;html=1;strokeColor=none;fillColor=none;align=center;verticalAlign=middle;whiteSpace=wrap;rounded=0;labelBackgroundColor=none;fontColor=#FFFFFF;" parent="1" vertex="1">
                    <mxGeometry x="527" y="314" width="60" height="30" as="geometry"/>
                </mxCell>
                <mxCell id="252" style="edgeStyle=none;html=1;exitX=0;exitY=0.5;exitDx=0;exitDy=0;endArrow=none;endFill=0;" parent="1" source="120" edge="1">
                    <mxGeometry relative="1" as="geometry">
                        <mxPoint x="400" y="280" as="targetPoint"/>
                    </mxGeometry>
                </mxCell>
                <mxCell id="120" value="&lt;span style=&quot;font-size: 10px&quot;&gt;PC0&lt;/span&gt;" style="ellipse;whiteSpace=wrap;html=1;aspect=fixed;fillColor=#ffe6cc;strokeColor=#d79b00;fontColor=#000000;" parent="1" vertex="1">
                    <mxGeometry x="445" y="270" width="20" height="20" as="geometry"/>
                </mxCell>
                <mxCell id="121" value="" style="endArrow=none;html=1;rounded=0;startArrow=none;" parent="1" source="122" target="120" edge="1">
                    <mxGeometry width="50" height="50" relative="1" as="geometry">
                        <mxPoint x="1014.000034900836" y="278.026419987052" as="sourcePoint"/>
                        <mxPoint x="364.9999661798963" y="279.9739922856179" as="targetPoint"/>
                        <Array as="points"/>
                    </mxGeometry>
                </mxCell>
                <mxCell id="302" style="edgeStyle=none;html=1;exitX=1;exitY=0.5;exitDx=0;exitDy=0;endArrow=none;endFill=0;strokeWidth=1;" parent="1" source="122" edge="1">
                    <mxGeometry relative="1" as="geometry">
                        <mxPoint x="710" y="278.94736842105266" as="targetPoint"/>
                    </mxGeometry>
                </mxCell>
                <mxCell id="122" value="&lt;span style=&quot;font-size: 10px&quot;&gt;PC2&lt;/span&gt;" style="ellipse;whiteSpace=wrap;html=1;aspect=fixed;fillColor=#ffe6cc;strokeColor=#d79b00;fontColor=#000000;" parent="1" vertex="1">
                    <mxGeometry x="627" y="269" width="20" height="20" as="geometry"/>
                </mxCell>
                <mxCell id="123" value="" style="endArrow=none;html=1;rounded=0;startArrow=none;" parent="1" source="r3FgKxrRIFfHUx7xBJCp-6" edge="1">
                    <mxGeometry width="50" height="50" relative="1" as="geometry">
                        <mxPoint x="1019.0000121310209" y="278.01557630509194" as="sourcePoint"/>
                        <mxPoint x="760" y="279" as="targetPoint"/>
                        <Array as="points"/>
                    </mxGeometry>
                </mxCell>
                <mxCell id="255" style="edgeStyle=none;html=1;exitX=0;exitY=0.5;exitDx=0;exitDy=0;endArrow=none;endFill=0;fillColor=#d5e8d4;strokeColor=#82b366;" parent="1" source="125" edge="1">
                    <mxGeometry relative="1" as="geometry">
                        <mxPoint x="400" y="320" as="targetPoint"/>
                    </mxGeometry>
                </mxCell>
                <mxCell id="125" value="&lt;span style=&quot;font-size: 10px&quot;&gt;PC1&lt;/span&gt;" style="ellipse;whiteSpace=wrap;html=1;aspect=fixed;fillColor=#ffe6cc;strokeColor=#d79b00;fontColor=#000000;" parent="1" vertex="1">
                    <mxGeometry x="445" y="310.25" width="20" height="20" as="geometry"/>
                </mxCell>
                <mxCell id="126" value="" style="endArrow=none;html=1;rounded=0;fillColor=#d5e8d4;strokeColor=#82b366;endFill=1;startArrow=none;exitX=1;exitY=0.5;exitDx=0;exitDy=0;" parent="1" source="r3FgKxrRIFfHUx7xBJCp-12" edge="1">
                    <mxGeometry width="50" height="50" relative="1" as="geometry">
                        <mxPoint x="39.999999999999886" y="318" as="sourcePoint"/>
                        <mxPoint x="370" y="320" as="targetPoint"/>
                        <Array as="points"/>
                    </mxGeometry>
                </mxCell>
                <mxCell id="303" style="edgeStyle=none;html=1;exitX=1;exitY=0.5;exitDx=0;exitDy=0;endArrow=none;endFill=0;strokeWidth=1;fillColor=#d5e8d4;strokeColor=#82b366;" parent="1" source="127" edge="1">
                    <mxGeometry relative="1" as="geometry">
                        <mxPoint x="710" y="320" as="targetPoint"/>
                    </mxGeometry>
                </mxCell>
                <mxCell id="127" value="&lt;span style=&quot;font-size: 10px&quot;&gt;PC3&lt;/span&gt;" style="ellipse;whiteSpace=wrap;html=1;aspect=fixed;fillColor=#ffe6cc;strokeColor=#d79b00;fontColor=#000000;" parent="1" vertex="1">
                    <mxGeometry x="627" y="310" width="20" height="20" as="geometry"/>
                </mxCell>
                <mxCell id="128" value="" style="endArrow=none;html=1;rounded=0;fillColor=#d5e8d4;strokeColor=#82b366;endFill=1;startArrow=none;" parent="1" source="125" target="127" edge="1">
                    <mxGeometry width="50" height="50" relative="1" as="geometry">
                        <mxPoint x="464.9999964691874" y="317.00840335837745" as="sourcePoint"/>
                        <mxPoint x="1625" y="478" as="targetPoint"/>
                        <Array as="points"/>
                    </mxGeometry>
                </mxCell>
                <mxCell id="133" value="" style="edgeStyle=none;html=1;fontSize=10;fontColor=#FFFFFF;entryX=0;entryY=1;entryDx=0;entryDy=0;fillColor=#d5e8d4;strokeColor=#82b366;" parent="1" source="131" target="r3FgKxrRIFfHUx7xBJCp-10" edge="1">
                    <mxGeometry relative="1" as="geometry"/>
                </mxCell>
                <mxCell id="134" value="&lt;span style=&quot;color: rgb(0 , 0 , 0) ; font-size: 10px&quot;&gt;PE0&lt;/span&gt;" style="ellipse;whiteSpace=wrap;html=1;aspect=fixed;fillColor=#ffe6cc;strokeColor=#d79b00;" parent="1" vertex="1">
                    <mxGeometry x="1060" y="148" width="20" height="20" as="geometry"/>
                </mxCell>
                <mxCell id="135" value="&lt;span style=&quot;color: rgb(0 , 0 , 0) ; font-size: 10px&quot;&gt;PE1&lt;/span&gt;" style="ellipse;whiteSpace=wrap;html=1;aspect=fixed;fillColor=#ffe6cc;strokeColor=#d79b00;" parent="1" vertex="1">
                    <mxGeometry x="1219" y="149" width="20" height="20" as="geometry"/>
                </mxCell>
                <mxCell id="137" value="&lt;span style=&quot;color: rgb(0 , 0 , 0) ; font-size: 10px&quot;&gt;PH1&lt;/span&gt;" style="ellipse;whiteSpace=wrap;html=1;aspect=fixed;fillColor=#ffe6cc;strokeColor=#d79b00;" parent="1" vertex="1">
                    <mxGeometry x="1420" y="308" width="20" height="20" as="geometry"/>
                </mxCell>
                <mxCell id="138" value="" style="endArrow=none;html=1;rounded=0;fillColor=#d5e8d4;strokeColor=#82b366;endFill=1;startArrow=none;" parent="1" edge="1">
                    <mxGeometry width="50" height="50" relative="1" as="geometry">
                        <mxPoint x="760" y="320" as="sourcePoint"/>
                        <mxPoint x="1310" y="320" as="targetPoint"/>
                    </mxGeometry>
                </mxCell>
                <mxCell id="140" value="&lt;span style=&quot;font-size: 10px&quot;&gt;Platform 2&lt;br&gt;&lt;/span&gt;" style="text;html=1;strokeColor=none;fillColor=none;align=center;verticalAlign=middle;whiteSpace=wrap;rounded=0;labelBackgroundColor=none;fontColor=#FFFFFF;" parent="1" vertex="1">
                    <mxGeometry x="1606.5" y="180.25" width="49" height="14" as="geometry"/>
                </mxCell>
                <mxCell id="143" style="edgeStyle=none;html=1;exitX=1;exitY=1;exitDx=0;exitDy=0;fontSize=10;fontColor=#FFFFFF;entryX=0;entryY=0;entryDx=0;entryDy=0;fillColor=#e1d5e7;strokeColor=#9673a6;" parent="1" source="141" target="144" edge="1">
                    <mxGeometry relative="1" as="geometry">
                        <mxPoint x="1548" y="220" as="targetPoint"/>
                    </mxGeometry>
                </mxCell>
                <mxCell id="317" style="edgeStyle=none;html=1;exitX=1;exitY=0.5;exitDx=0;exitDy=0;endArrow=classic;endFill=1;strokeWidth=1;fillColor=#e1d5e7;strokeColor=#9673a6;" parent="1" source="141" edge="1">
                    <mxGeometry relative="1" as="geometry">
                        <mxPoint x="1700" y="158" as="targetPoint"/>
                    </mxGeometry>
                </mxCell>
                <mxCell id="141" value="&lt;span style=&quot;color: rgb(0 , 0 , 0) ; font-size: 10px&quot;&gt;PG0&lt;/span&gt;" style="ellipse;whiteSpace=wrap;html=1;aspect=fixed;fillColor=#ffe6cc;strokeColor=#d79b00;" parent="1" vertex="1">
                    <mxGeometry x="1513.5" y="148" width="20" height="20" as="geometry"/>
                </mxCell>
                <mxCell id="153" style="edgeStyle=none;rounded=0;html=1;exitX=1;exitY=0.5;exitDx=0;exitDy=0;fontSize=10;fontColor=#FFFFFF;endArrow=classic;endFill=1;fillColor=#fff2cc;strokeColor=#d6b656;" parent="1" source="144" edge="1">
                    <mxGeometry relative="1" as="geometry">
                        <mxPoint x="1700" y="200" as="targetPoint"/>
                    </mxGeometry>
                </mxCell>
                <mxCell id="144" value="&lt;span style=&quot;color: rgb(0 , 0 , 0) ; font-size: 10px&quot;&gt;PG1&lt;/span&gt;" style="ellipse;whiteSpace=wrap;html=1;aspect=fixed;fillColor=#ffe6cc;strokeColor=#d79b00;" parent="1" vertex="1">
                    <mxGeometry x="1546" y="190" width="20" height="20" as="geometry"/>
                </mxCell>
                <mxCell id="r3FgKxrRIFfHUx7xBJCp-12" value="&lt;span style=&quot;font-size: 10px&quot;&gt;PA3&lt;/span&gt;" style="ellipse;whiteSpace=wrap;html=1;aspect=fixed;fillColor=#ffe6cc;strokeColor=#d79b00;fontColor=#000000;" parent="1" vertex="1">
                    <mxGeometry x="307.5" y="310" width="20" height="20" as="geometry"/>
                </mxCell>
                <mxCell id="147" value="" style="endArrow=classic;html=1;rounded=0;strokeWidth=1;endFill=1;exitX=1;exitY=0;exitDx=0;exitDy=0;entryX=0;entryY=0;entryDx=0;entryDy=0;" parent="1" source="120" target="122" edge="1">
                    <mxGeometry width="50" height="50" relative="1" as="geometry">
                        <mxPoint x="485" y="187" as="sourcePoint"/>
                        <mxPoint x="704" y="77" as="targetPoint"/>
                        <Array as="points">
                            <mxPoint x="475" y="260"/>
                            <mxPoint x="615" y="260"/>
                        </Array>
                    </mxGeometry>
                </mxCell>
                <mxCell id="148" value="" style="endArrow=classic;html=1;rounded=0;fillColor=#d5e8d4;strokeColor=#82b366;strokeWidth=1;endFill=1;exitX=1;exitY=1;exitDx=0;exitDy=0;entryX=0;entryY=1;entryDx=0;entryDy=0;" parent="1" source="125" target="127" edge="1">
                    <mxGeometry width="50" height="50" relative="1" as="geometry">
                        <mxPoint x="462.0710678118654" y="387.92893218813464" as="sourcePoint"/>
                        <mxPoint x="577.9289321881347" y="387.92893218813464" as="targetPoint"/>
                        <Array as="points">
                            <mxPoint x="475" y="340"/>
                            <mxPoint x="615" y="340"/>
                        </Array>
                    </mxGeometry>
                </mxCell>
                <mxCell id="149" value="" style="endArrow=none;html=1;rounded=0;strokeWidth=1;endFill=0;exitX=1;exitY=1;exitDx=0;exitDy=0;entryX=0;entryY=1;entryDx=0;entryDy=0;startArrow=classic;startFill=1;" parent="1" source="134" target="135" edge="1">
                    <mxGeometry width="50" height="50" relative="1" as="geometry">
                        <mxPoint x="1100.0010678118656" y="177.16106781186554" as="sourcePoint"/>
                        <mxPoint x="1215.8589321881348" y="177.9110678118653" as="targetPoint"/>
                        <Array as="points">
                            <mxPoint x="1090" y="180"/>
                            <mxPoint x="1210" y="180"/>
                        </Array>
                    </mxGeometry>
                </mxCell>
                <mxCell id="151" value="" style="endArrow=none;html=1;rounded=0;fillColor=#e3c800;strokeColor=#B09500;strokeWidth=1;endFill=0;exitX=1;exitY=0.5;exitDx=0;exitDy=0;entryX=0;entryY=0.5;entryDx=0;entryDy=0;" parent="1" source="137" target="144" edge="1">
                    <mxGeometry width="50" height="50" relative="1" as="geometry">
                        <mxPoint x="1500.0010678118656" y="296.0010678118654" as="sourcePoint"/>
                        <mxPoint x="1520" y="210" as="targetPoint"/>
                        <Array as="points">
                            <mxPoint x="1450" y="318"/>
                            <mxPoint x="1510" y="260"/>
                            <mxPoint x="1510" y="210"/>
                            <mxPoint x="1520" y="200"/>
                        </Array>
                    </mxGeometry>
                </mxCell>
                <mxCell id="154" value="&lt;span style=&quot;font-size: 10px&quot;&gt;SA5&lt;/span&gt;" style="ellipse;whiteSpace=wrap;html=1;fillColor=#1ba1e2;fontColor=#ffffff;strokeColor=#006EAF;direction=east;" parent="1" vertex="1">
                    <mxGeometry x="423" y="251.25" width="22" height="16" as="geometry"/>
                </mxCell>
                <mxCell id="155" value="" style="endArrow=none;html=1;entryX=0;entryY=0.5;entryDx=0;entryDy=0;fillColor=#1ba1e2;strokeColor=#006EAF;exitX=1;exitY=0.75;exitDx=0;exitDy=0;" parent="1" target="154" edge="1">
                    <mxGeometry width="50" height="50" relative="1" as="geometry">
                        <mxPoint x="413" y="278.75" as="sourcePoint"/>
                        <mxPoint x="495" y="257.25" as="targetPoint"/>
                        <Array as="points">
                            <mxPoint x="413" y="259.25"/>
                        </Array>
                    </mxGeometry>
                </mxCell>
                <mxCell id="156" value="&lt;span style=&quot;font-size: 10px&quot;&gt;SA6&lt;/span&gt;" style="ellipse;whiteSpace=wrap;html=1;fillColor=#1ba1e2;fontColor=#ffffff;strokeColor=#006EAF;direction=east;" parent="1" vertex="1">
                    <mxGeometry x="423" y="292" width="22" height="16" as="geometry"/>
                </mxCell>
                <mxCell id="157" value="" style="endArrow=none;html=1;entryX=0;entryY=0.5;entryDx=0;entryDy=0;fillColor=#1ba1e2;strokeColor=#006EAF;" parent="1" target="156" edge="1">
                    <mxGeometry width="50" height="50" relative="1" as="geometry">
                        <mxPoint x="413" y="320" as="sourcePoint"/>
                        <mxPoint x="495" y="295" as="targetPoint"/>
                        <Array as="points">
                            <mxPoint x="413" y="300"/>
                        </Array>
                    </mxGeometry>
                </mxCell>
                <mxCell id="158" value="&lt;span style=&quot;font-size: 10px&quot;&gt;SE1&lt;/span&gt;" style="ellipse;whiteSpace=wrap;html=1;fillColor=#1ba1e2;fontColor=#ffffff;strokeColor=#006EAF;direction=east;rotation=-45;" parent="1" vertex="1">
                    <mxGeometry x="1033.5" y="154" width="22" height="16" as="geometry"/>
                </mxCell>
                <mxCell id="159" value="" style="endArrow=none;html=1;entryX=0;entryY=0.5;entryDx=0;entryDy=0;fillColor=#1ba1e2;strokeColor=#006EAF;" parent="1" target="158" edge="1">
                    <mxGeometry width="50" height="50" relative="1" as="geometry">
                        <mxPoint x="1037" y="189" as="sourcePoint"/>
                        <mxPoint x="1132.5" y="148.5" as="targetPoint"/>
                        <Array as="points">
                            <mxPoint x="1027" y="179"/>
                        </Array>
                    </mxGeometry>
                </mxCell>
                <mxCell id="162" value="&lt;span style=&quot;font-size: 10px&quot;&gt;SE6&lt;/span&gt;" style="ellipse;whiteSpace=wrap;html=1;fillColor=#1ba1e2;fontColor=#ffffff;strokeColor=#006EAF;direction=east;rotation=45;" parent="1" vertex="1">
                    <mxGeometry x="1227" y="179" width="22" height="16" as="geometry"/>
                </mxCell>
                <mxCell id="163" value="" style="endArrow=none;html=1;fillColor=#1ba1e2;strokeColor=#006EAF;entryX=1;entryY=0.5;entryDx=0;entryDy=0;" parent="1" target="162" edge="1">
                    <mxGeometry width="50" height="50" relative="1" as="geometry">
                        <mxPoint x="1263" y="193" as="sourcePoint"/>
                        <mxPoint x="1256" y="183" as="targetPoint"/>
                        <Array as="points">
                            <mxPoint x="1253" y="203"/>
                        </Array>
                    </mxGeometry>
                </mxCell>
                <mxCell id="164" value="&lt;span style=&quot;font-size: 10px&quot;&gt;SH2&lt;/span&gt;" style="ellipse;whiteSpace=wrap;html=1;fillColor=#1ba1e2;fontColor=#ffffff;strokeColor=#006EAF;direction=east;" parent="1" vertex="1">
                    <mxGeometry x="1400" y="290" width="22" height="16" as="geometry"/>
                </mxCell>
                <mxCell id="165" value="" style="endArrow=none;html=1;entryX=0;entryY=0.5;entryDx=0;entryDy=0;fillColor=#1ba1e2;strokeColor=#006EAF;exitX=1;exitY=0.75;exitDx=0;exitDy=0;" parent="1" target="164" edge="1">
                    <mxGeometry width="50" height="50" relative="1" as="geometry">
                        <mxPoint x="1390" y="317.5" as="sourcePoint"/>
                        <mxPoint x="1472" y="296" as="targetPoint"/>
                        <Array as="points">
                            <mxPoint x="1390" y="298"/>
                        </Array>
                    </mxGeometry>
                </mxCell>
                <mxCell id="166" value="&lt;span style=&quot;font-size: 10px&quot;&gt;SG6&lt;/span&gt;" style="ellipse;whiteSpace=wrap;html=1;fillColor=#1ba1e2;fontColor=#ffffff;strokeColor=#006EAF;direction=east;" parent="1" vertex="1">
                    <mxGeometry x="1561" y="210" width="22" height="16" as="geometry"/>
                </mxCell>
                <mxCell id="167" value="" style="endArrow=none;html=1;entryX=1;entryY=0.5;entryDx=0;entryDy=0;fillColor=#1ba1e2;strokeColor=#006EAF;" parent="1" target="166" edge="1">
                    <mxGeometry width="50" height="50" relative="1" as="geometry">
                        <mxPoint x="1591.9999999999998" y="200" as="sourcePoint"/>
                        <mxPoint x="1594" y="190" as="targetPoint"/>
                        <Array as="points">
                            <mxPoint x="1592" y="218"/>
                        </Array>
                    </mxGeometry>
                </mxCell>
                <mxCell id="168" value="&lt;span style=&quot;font-size: 10px&quot;&gt;SG5&lt;/span&gt;" style="ellipse;whiteSpace=wrap;html=1;fillColor=#1ba1e2;fontColor=#ffffff;strokeColor=#006EAF;direction=east;" parent="1" vertex="1">
                    <mxGeometry x="1551" y="164.25" width="22" height="16" as="geometry"/>
                </mxCell>
                <mxCell id="169" value="" style="endArrow=none;html=1;entryX=1;entryY=0.5;entryDx=0;entryDy=0;fillColor=#1ba1e2;strokeColor=#006EAF;" parent="1" target="168" edge="1">
                    <mxGeometry width="50" height="50" relative="1" as="geometry">
                        <mxPoint x="1579.5" y="158" as="sourcePoint"/>
                        <mxPoint x="1581.5" y="110" as="targetPoint"/>
                        <Array as="points">
                            <mxPoint x="1580" y="172"/>
                        </Array>
                    </mxGeometry>
                </mxCell>
                <mxCell id="170" value="&lt;span style=&quot;font-size: 10px&quot;&gt;SG3&lt;/span&gt;" style="ellipse;whiteSpace=wrap;html=1;fillColor=#1ba1e2;fontColor=#ffffff;strokeColor=#006EAF;direction=east;rotation=-45;" parent="1" vertex="1">
                    <mxGeometry x="1484.5" y="143" width="22" height="16" as="geometry"/>
                </mxCell>
                <mxCell id="171" value="" style="endArrow=none;html=1;entryX=0;entryY=0.5;entryDx=0;entryDy=0;fillColor=#1ba1e2;strokeColor=#006EAF;" parent="1" target="170" edge="1">
                    <mxGeometry width="50" height="50" relative="1" as="geometry">
                        <mxPoint x="1488" y="178" as="sourcePoint"/>
                        <mxPoint x="1583.5" y="137.5" as="targetPoint"/>
                        <Array as="points">
                            <mxPoint x="1478" y="168"/>
                        </Array>
                    </mxGeometry>
                </mxCell>
                <mxCell id="173" value="" style="endArrow=none;html=1;fillColor=#1ba1e2;strokeColor=#006EAF;exitX=0;exitY=0.5;exitDx=0;exitDy=0;" parent="1" source="250" edge="1">
                    <mxGeometry width="50" height="50" relative="1" as="geometry">
                        <mxPoint x="1497.4999999999998" y="215.49999999998715" as="sourcePoint"/>
                        <mxPoint x="1510" y="228" as="targetPoint"/>
                        <Array as="points">
                            <mxPoint x="1495" y="228"/>
                        </Array>
                    </mxGeometry>
                </mxCell>
                <mxCell id="176" value="&lt;span style=&quot;font-size: 10px&quot;&gt;SH3&lt;/span&gt;" style="ellipse;whiteSpace=wrap;html=1;fillColor=#1ba1e2;fontColor=#ffffff;strokeColor=#006EAF;direction=east;rotation=45;" parent="1" vertex="1">
                    <mxGeometry x="1425" y="334" width="22" height="16" as="geometry"/>
                </mxCell>
                <mxCell id="177" value="" style="endArrow=none;html=1;fillColor=#1ba1e2;strokeColor=#006EAF;entryX=1;entryY=0.5;entryDx=0;entryDy=0;" parent="1" target="176" edge="1">
                    <mxGeometry width="50" height="50" relative="1" as="geometry">
                        <mxPoint x="1461" y="348" as="sourcePoint"/>
                        <mxPoint x="1454" y="338" as="targetPoint"/>
                        <Array as="points">
                            <mxPoint x="1451" y="358"/>
                        </Array>
                    </mxGeometry>
                </mxCell>
                <mxCell id="178" value="&lt;span style=&quot;font-size: 10px&quot;&gt;SD1&lt;/span&gt;" style="ellipse;whiteSpace=wrap;html=1;fillColor=#1ba1e2;fontColor=#ffffff;strokeColor=#006EAF;direction=east;" parent="1" vertex="1">
                    <mxGeometry x="647" y="328" width="22" height="16" as="geometry"/>
                </mxCell>
                <mxCell id="179" value="" style="endArrow=none;html=1;entryX=1;entryY=0.5;entryDx=0;entryDy=0;fillColor=#1ba1e2;strokeColor=#006EAF;" parent="1" target="178" edge="1">
                    <mxGeometry width="50" height="50" relative="1" as="geometry">
                        <mxPoint x="678" y="320" as="sourcePoint"/>
                        <mxPoint x="680" y="308" as="targetPoint"/>
                        <Array as="points">
                            <mxPoint x="678" y="336"/>
                        </Array>
                    </mxGeometry>
                </mxCell>
                <mxCell id="180" value="&lt;span style=&quot;font-size: 10px&quot;&gt;SD0&lt;/span&gt;" style="ellipse;whiteSpace=wrap;html=1;fillColor=#1ba1e2;fontColor=#ffffff;strokeColor=#006EAF;direction=east;" parent="1" vertex="1">
                    <mxGeometry x="647" y="290" width="22" height="16" as="geometry"/>
                </mxCell>
                <mxCell id="181" value="" style="endArrow=none;html=1;entryX=1;entryY=0.5;entryDx=0;entryDy=0;fillColor=#1ba1e2;strokeColor=#006EAF;" parent="1" target="180" edge="1">
                    <mxGeometry width="50" height="50" relative="1" as="geometry">
                        <mxPoint x="678" y="280" as="sourcePoint"/>
                        <mxPoint x="680" y="270" as="targetPoint"/>
                        <Array as="points">
                            <mxPoint x="678" y="298"/>
                        </Array>
                    </mxGeometry>
                </mxCell>
                <mxCell id="184" value="" style="endArrow=none;html=1;rounded=0;fillColor=#d5e8d4;strokeColor=#82b366;endFill=1;entryX=0;entryY=0.5;entryDx=0;entryDy=0;" parent="1" target="131" edge="1">
                    <mxGeometry width="50" height="50" relative="1" as="geometry">
                        <mxPoint x="40" y="320" as="sourcePoint"/>
                        <mxPoint x="450.0000045351368" y="317.25952380520465" as="targetPoint"/>
                        <Array as="points"/>
                    </mxGeometry>
                </mxCell>
                <mxCell id="131" value="&lt;font style=&quot;font-size: 10px&quot;&gt;PA0&lt;/font&gt;" style="ellipse;whiteSpace=wrap;html=1;aspect=fixed;fillColor=#ffe6cc;strokeColor=#d79b00;fontColor=#000000;" parent="1" vertex="1">
                    <mxGeometry x="249" y="310" width="20" height="20" as="geometry"/>
                </mxCell>
                <mxCell id="186" value="&lt;span style=&quot;font-size: 10px&quot;&gt;SC7&lt;/span&gt;" style="ellipse;whiteSpace=wrap;html=1;fillColor=#1ba1e2;fontColor=#ffffff;strokeColor=#006EAF;direction=east;" parent="1" vertex="1">
                    <mxGeometry x="605" y="351" width="22" height="16" as="geometry"/>
                </mxCell>
                <mxCell id="187" value="" style="endArrow=none;html=1;entryX=0;entryY=0.5;entryDx=0;entryDy=0;fillColor=#1ba1e2;strokeColor=#006EAF;" parent="1" target="186" edge="1">
                    <mxGeometry width="50" height="50" relative="1" as="geometry">
                        <mxPoint x="595" y="340" as="sourcePoint"/>
                        <mxPoint x="677" y="357" as="targetPoint"/>
                        <Array as="points">
                            <mxPoint x="595" y="359"/>
                        </Array>
                    </mxGeometry>
                </mxCell>
                <mxCell id="188" value="&lt;span style=&quot;font-size: 10px&quot;&gt;SC6&lt;/span&gt;" style="ellipse;whiteSpace=wrap;html=1;fillColor=#1ba1e2;fontColor=#ffffff;strokeColor=#006EAF;direction=east;" parent="1" vertex="1">
                    <mxGeometry x="605" y="299.25" width="22" height="16" as="geometry"/>
                </mxCell>
                <mxCell id="189" value="" style="endArrow=none;html=1;entryX=0;entryY=0.5;entryDx=0;entryDy=0;fillColor=#1ba1e2;strokeColor=#006EAF;" parent="1" target="188" edge="1">
                    <mxGeometry width="50" height="50" relative="1" as="geometry">
                        <mxPoint x="595" y="320" as="sourcePoint"/>
                        <mxPoint x="677" y="295" as="targetPoint"/>
                        <Array as="points">
                            <mxPoint x="595" y="307"/>
                        </Array>
                    </mxGeometry>
                </mxCell>
                <mxCell id="190" value="&lt;span style=&quot;font-size: 10px&quot;&gt;SC5&lt;/span&gt;" style="ellipse;whiteSpace=wrap;html=1;fillColor=#1ba1e2;fontColor=#ffffff;strokeColor=#006EAF;direction=east;" parent="1" vertex="1">
                    <mxGeometry x="605" y="282" width="22" height="16" as="geometry"/>
                </mxCell>
                <mxCell id="191" value="" style="endArrow=none;html=1;entryX=0;entryY=0.5;entryDx=0;entryDy=0;fillColor=#1ba1e2;strokeColor=#006EAF;" parent="1" target="190" edge="1">
                    <mxGeometry width="50" height="50" relative="1" as="geometry">
                        <mxPoint x="595" y="280" as="sourcePoint"/>
                        <mxPoint x="677" y="277.75" as="targetPoint"/>
                        <Array as="points">
                            <mxPoint x="595" y="289.75"/>
                        </Array>
                    </mxGeometry>
                </mxCell>
                <mxCell id="192" value="&lt;span style=&quot;font-size: 10px&quot;&gt;SC1&lt;/span&gt;" style="ellipse;whiteSpace=wrap;html=1;fillColor=#1ba1e2;fontColor=#ffffff;strokeColor=#006EAF;direction=east;" parent="1" vertex="1">
                    <mxGeometry x="465" y="282" width="22" height="16" as="geometry"/>
                </mxCell>
                <mxCell id="193" value="" style="endArrow=none;html=1;entryX=1;entryY=0.5;entryDx=0;entryDy=0;fillColor=#1ba1e2;strokeColor=#006EAF;" parent="1" target="192" edge="1">
                    <mxGeometry width="50" height="50" relative="1" as="geometry">
                        <mxPoint x="498" y="280" as="sourcePoint"/>
                        <mxPoint x="540" y="277.75" as="targetPoint"/>
                        <Array as="points">
                            <mxPoint x="498" y="290"/>
                        </Array>
                    </mxGeometry>
                </mxCell>
                <mxCell id="194" value="&lt;span style=&quot;font-size: 10px&quot;&gt;SC2&lt;/span&gt;" style="ellipse;whiteSpace=wrap;html=1;fillColor=#1ba1e2;fontColor=#ffffff;strokeColor=#006EAF;direction=east;" parent="1" vertex="1">
                    <mxGeometry x="465" y="299" width="22" height="16" as="geometry"/>
                </mxCell>
                <mxCell id="196" value="" style="endArrow=none;html=1;entryX=1;entryY=0.5;entryDx=0;entryDy=0;fillColor=#1ba1e2;strokeColor=#006EAF;" parent="1" target="194" edge="1">
                    <mxGeometry width="50" height="50" relative="1" as="geometry">
                        <mxPoint x="495" y="320" as="sourcePoint"/>
                        <mxPoint x="504.99999999999943" y="307.5" as="targetPoint"/>
                        <Array as="points">
                            <mxPoint x="495" y="307.25"/>
                        </Array>
                    </mxGeometry>
                </mxCell>
                <mxCell id="197" value="&lt;span style=&quot;font-size: 10px&quot;&gt;SC3&lt;/span&gt;" style="ellipse;whiteSpace=wrap;html=1;fillColor=#1ba1e2;fontColor=#ffffff;strokeColor=#006EAF;direction=east;" parent="1" vertex="1">
                    <mxGeometry x="456" y="350" width="22" height="16" as="geometry"/>
                </mxCell>
                <mxCell id="198" value="" style="endArrow=none;html=1;entryX=1;entryY=0.5;entryDx=0;entryDy=0;fillColor=#1ba1e2;strokeColor=#006EAF;" parent="1" target="197" edge="1">
                    <mxGeometry width="50" height="50" relative="1" as="geometry">
                        <mxPoint x="487" y="340" as="sourcePoint"/>
                        <mxPoint x="489" y="330" as="targetPoint"/>
                        <Array as="points">
                            <mxPoint x="487" y="358"/>
                        </Array>
                    </mxGeometry>
                </mxCell>
                <mxCell id="199" value="&lt;span style=&quot;font-size: 10px&quot;&gt;SC0&lt;/span&gt;" style="ellipse;whiteSpace=wrap;html=1;fillColor=#1ba1e2;fontColor=#ffffff;strokeColor=#006EAF;direction=east;" parent="1" vertex="1">
                    <mxGeometry x="460.5" y="232" width="22" height="16" as="geometry"/>
                </mxCell>
                <mxCell id="200" value="" style="endArrow=none;html=1;entryX=1;entryY=0.5;entryDx=0;entryDy=0;fillColor=#1ba1e2;strokeColor=#006EAF;" parent="1" target="199" edge="1">
                    <mxGeometry width="50" height="50" relative="1" as="geometry">
                        <mxPoint x="492" y="260" as="sourcePoint"/>
                        <mxPoint x="493.5" y="212" as="targetPoint"/>
                        <Array as="points">
                            <mxPoint x="491.5" y="240"/>
                        </Array>
                    </mxGeometry>
                </mxCell>
                <mxCell id="201" value="&lt;span style=&quot;font-size: 10px&quot;&gt;SE4&lt;/span&gt;" style="ellipse;whiteSpace=wrap;html=1;fillColor=#1ba1e2;fontColor=#ffffff;strokeColor=#006EAF;direction=east;" parent="1" vertex="1">
                    <mxGeometry x="1207" y="129.5" width="22" height="16" as="geometry"/>
                </mxCell>
                <mxCell id="202" value="" style="endArrow=none;html=1;entryX=0;entryY=0.5;entryDx=0;entryDy=0;fillColor=#1ba1e2;strokeColor=#006EAF;exitX=1;exitY=0.75;exitDx=0;exitDy=0;" parent="1" target="201" edge="1">
                    <mxGeometry width="50" height="50" relative="1" as="geometry">
                        <mxPoint x="1197" y="157" as="sourcePoint"/>
                        <mxPoint x="1279" y="135.5" as="targetPoint"/>
                        <Array as="points">
                            <mxPoint x="1197" y="137.5"/>
                        </Array>
                    </mxGeometry>
                </mxCell>
                <mxCell id="203" value="&lt;span style=&quot;font-size: 10px&quot;&gt;SE5&lt;/span&gt;" style="ellipse;whiteSpace=wrap;html=1;fillColor=#1ba1e2;fontColor=#ffffff;strokeColor=#006EAF;direction=east;" parent="1" vertex="1">
                    <mxGeometry x="1207" y="194.25" width="22" height="16" as="geometry"/>
                </mxCell>
                <mxCell id="204" value="" style="endArrow=none;html=1;entryX=0;entryY=0.5;entryDx=0;entryDy=0;fillColor=#1ba1e2;strokeColor=#006EAF;" parent="1" target="203" edge="1">
                    <mxGeometry width="50" height="50" relative="1" as="geometry">
                        <mxPoint x="1197" y="180" as="sourcePoint"/>
                        <mxPoint x="1279" y="200.25" as="targetPoint"/>
                        <Array as="points">
                            <mxPoint x="1197" y="202.25"/>
                        </Array>
                    </mxGeometry>
                </mxCell>
                <mxCell id="205" value="&lt;span style=&quot;font-size: 10px&quot;&gt;SE3&lt;/span&gt;" style="ellipse;whiteSpace=wrap;html=1;fillColor=#1ba1e2;fontColor=#ffffff;strokeColor=#006EAF;direction=east;" parent="1" vertex="1">
                    <mxGeometry x="1072" y="194" width="22" height="16" as="geometry"/>
                </mxCell>
                <mxCell id="206" value="" style="endArrow=none;html=1;entryX=1;entryY=0.5;entryDx=0;entryDy=0;fillColor=#1ba1e2;strokeColor=#006EAF;" parent="1" target="205" edge="1">
                    <mxGeometry width="50" height="50" relative="1" as="geometry">
                        <mxPoint x="1103" y="181" as="sourcePoint"/>
                        <mxPoint x="1105" y="171" as="targetPoint"/>
                        <Array as="points">
                            <mxPoint x="1103" y="202"/>
                        </Array>
                    </mxGeometry>
                </mxCell>
                <mxCell id="207" value="&lt;span style=&quot;color: rgb(255 , 255 , 255) ; font-family: &amp;#34;helvetica&amp;#34; ; font-size: 10px ; font-style: normal ; font-weight: 400 ; letter-spacing: normal ; text-align: center ; text-indent: 0px ; text-transform: none ; word-spacing: 0px ; display: inline ; float: none&quot;&gt;SE2&lt;/span&gt;" style="ellipse;whiteSpace=wrap;html=1;fillColor=#1ba1e2;fontColor=#ffffff;strokeColor=#006EAF;direction=east;" parent="1" vertex="1">
                    <mxGeometry x="1072" y="130" width="22" height="16" as="geometry"/>
                </mxCell>
                <mxCell id="208" value="" style="endArrow=none;html=1;entryX=1;entryY=0.5;entryDx=0;entryDy=0;fillColor=#1ba1e2;strokeColor=#006EAF;" parent="1" target="207" edge="1">
                    <mxGeometry width="50" height="50" relative="1" as="geometry">
                        <mxPoint x="1103" y="157" as="sourcePoint"/>
                        <mxPoint x="1105" y="107" as="targetPoint"/>
                        <Array as="points">
                            <mxPoint x="1103" y="138"/>
                        </Array>
                    </mxGeometry>
                </mxCell>
                <mxCell id="212" value="" style="rounded=0;whiteSpace=wrap;html=1;fillColor=#ffe6cc;strokeColor=#d79b00;rotation=323;" parent="1" vertex="1">
                    <mxGeometry x="1532" y="170.25" width="10" height="10" as="geometry"/>
                </mxCell>
                <mxCell id="214" value="&lt;span style=&quot;font-size: 10px&quot;&gt;SG2&lt;/span&gt;" style="ellipse;whiteSpace=wrap;html=1;fillColor=#1ba1e2;fontColor=#ffffff;strokeColor=#006EAF;direction=east;rotation=-45;" parent="1" vertex="1">
                    <mxGeometry x="1455.54" y="316.29" width="22" height="14" as="geometry"/>
                </mxCell>
                <mxCell id="215" value="" style="endArrow=none;html=1;entryX=1;entryY=0.5;entryDx=0;entryDy=0;fillColor=#1ba1e2;strokeColor=#006EAF;" parent="1" target="214" edge="1">
                    <mxGeometry width="50" height="50" relative="1" as="geometry">
                        <mxPoint x="1472" y="295.75" as="sourcePoint"/>
                        <mxPoint x="1529" y="289.75" as="targetPoint"/>
                        <Array as="points">
                            <mxPoint x="1482" y="308"/>
                        </Array>
                    </mxGeometry>
                </mxCell>
                <mxCell id="216" value="TC0" style="text;html=1;strokeColor=none;fillColor=none;align=center;verticalAlign=middle;whiteSpace=wrap;rounded=0;" parent="1" vertex="1">
                    <mxGeometry x="497" y="245" width="26" height="16" as="geometry"/>
                </mxCell>
                <mxCell id="217" value="TC1" style="text;html=1;strokeColor=none;fillColor=none;align=center;verticalAlign=middle;whiteSpace=wrap;rounded=0;" parent="1" vertex="1">
                    <mxGeometry x="498" y="264" width="26" height="16" as="geometry"/>
                </mxCell>
                <mxCell id="218" value="TC2" style="text;html=1;strokeColor=none;fillColor=none;align=center;verticalAlign=middle;whiteSpace=wrap;rounded=0;" parent="1" vertex="1">
                    <mxGeometry x="497" y="304" width="26" height="16" as="geometry"/>
                </mxCell>
                <mxCell id="219" value="TC3" style="text;html=1;strokeColor=none;fillColor=none;align=center;verticalAlign=middle;whiteSpace=wrap;rounded=0;" parent="1" vertex="1">
                    <mxGeometry x="497" y="326" width="26" height="16" as="geometry"/>
                </mxCell>
                <mxCell id="220" value="TD0" style="text;html=1;strokeColor=none;fillColor=none;align=center;verticalAlign=middle;whiteSpace=wrap;rounded=0;" parent="1" vertex="1">
                    <mxGeometry x="722" y="241" width="26" height="16" as="geometry"/>
                </mxCell>
                <mxCell id="221" value="TD1" style="text;html=1;strokeColor=none;fillColor=none;align=center;verticalAlign=middle;whiteSpace=wrap;rounded=0;" parent="1" vertex="1">
                    <mxGeometry x="721" y="338" width="26" height="16" as="geometry"/>
                </mxCell>
                <mxCell id="222" value="TF1" style="text;html=1;strokeColor=none;fillColor=none;align=center;verticalAlign=middle;whiteSpace=wrap;rounded=0;rotation=-90;" parent="1" vertex="1">
                    <mxGeometry x="991" y="386" width="36" height="13" as="geometry"/>
                </mxCell>
                <mxCell id="223" value="TF0" style="text;html=1;strokeColor=none;fillColor=none;align=center;verticalAlign=middle;whiteSpace=wrap;rounded=0;rotation=-90;" parent="1" vertex="1">
                    <mxGeometry x="992" y="291.5" width="36" height="13" as="geometry"/>
                </mxCell>
                <mxCell id="224" value="&lt;font style=&quot;font-size: 13px&quot; color=&quot;#ff3333&quot;&gt;A&lt;/font&gt;" style="ellipse;whiteSpace=wrap;html=1;aspect=fixed;labelBackgroundColor=none;fontSize=7;fontColor=#000000;strokeColor=#FF6666;fillColor=#FFCCCC;" parent="1" vertex="1">
                    <mxGeometry x="110" y="216" width="20" height="20" as="geometry"/>
                </mxCell>
                <mxCell id="225" value="&lt;font style=&quot;font-size: 13px&quot; color=&quot;#ff3333&quot;&gt;B&lt;/font&gt;" style="ellipse;whiteSpace=wrap;html=1;aspect=fixed;labelBackgroundColor=none;fontSize=7;fontColor=#000000;strokeColor=#FF6666;fillColor=#FFCCCC;" parent="1" vertex="1">
                    <mxGeometry x="109" y="419" width="20" height="20" as="geometry"/>
                </mxCell>
                <mxCell id="226" value="&lt;font style=&quot;font-size: 13px&quot; color=&quot;#ff3333&quot;&gt;C&lt;/font&gt;" style="ellipse;whiteSpace=wrap;html=1;aspect=fixed;labelBackgroundColor=none;fontSize=7;fontColor=#000000;strokeColor=#FF6666;fillColor=#FFCCCC;" parent="1" vertex="1">
                    <mxGeometry x="585" y="200" width="20" height="20" as="geometry"/>
                </mxCell>
                <mxCell id="227" value="&lt;font style=&quot;font-size: 13px&quot; color=&quot;#ff3333&quot;&gt;D&lt;/font&gt;" style="ellipse;whiteSpace=wrap;html=1;aspect=fixed;labelBackgroundColor=none;fontSize=7;fontColor=#000000;strokeColor=#FF6666;fillColor=#FFCCCC;" parent="1" vertex="1">
                    <mxGeometry x="910" y="213" width="20" height="20" as="geometry"/>
                </mxCell>
                <mxCell id="228" value="&lt;font style=&quot;font-size: 13px&quot; color=&quot;#ff3333&quot;&gt;E&lt;br&gt;&lt;/font&gt;" style="ellipse;whiteSpace=wrap;html=1;aspect=fixed;labelBackgroundColor=none;fontSize=7;fontColor=#000000;strokeColor=#FF6666;fillColor=#FFCCCC;" parent="1" vertex="1">
                    <mxGeometry x="1181" y="90" width="20" height="20" as="geometry"/>
                </mxCell>
                <mxCell id="229" value="&lt;font style=&quot;font-size: 13px&quot; color=&quot;#ff3333&quot;&gt;F&lt;/font&gt;" style="ellipse;whiteSpace=wrap;html=1;aspect=fixed;labelBackgroundColor=none;fontSize=7;fontColor=#000000;strokeColor=#FF6666;fillColor=#FFCCCC;" parent="1" vertex="1">
                    <mxGeometry x="1209" y="419" width="20" height="20" as="geometry"/>
                </mxCell>
                <mxCell id="230" value="&lt;font style=&quot;font-size: 13px&quot; color=&quot;#ff3333&quot;&gt;G&lt;/font&gt;" style="ellipse;whiteSpace=wrap;html=1;aspect=fixed;labelBackgroundColor=none;fontSize=7;fontColor=#000000;strokeColor=#FF6666;fillColor=#FFCCCC;" parent="1" vertex="1">
                    <mxGeometry x="1658" y="90" width="20" height="20" as="geometry"/>
                </mxCell>
                <mxCell id="232" value="&lt;font style=&quot;font-size: 13px&quot; color=&quot;#ff3333&quot;&gt;H&lt;/font&gt;" style="ellipse;whiteSpace=wrap;html=1;aspect=fixed;labelBackgroundColor=none;fontSize=7;fontColor=#000000;strokeColor=#FF6666;fillColor=#FFCCCC;" parent="1" vertex="1">
                    <mxGeometry x="1603" y="409" width="20" height="20" as="geometry"/>
                </mxCell>
                <mxCell id="233" value="&lt;span style=&quot;font-size: 10px&quot;&gt;SC4&lt;/span&gt;" style="ellipse;whiteSpace=wrap;html=1;fillColor=#1ba1e2;fontColor=#ffffff;strokeColor=#006EAF;direction=east;" parent="1" vertex="1">
                    <mxGeometry x="610" y="234" width="22" height="16" as="geometry"/>
                </mxCell>
                <mxCell id="234" value="" style="endArrow=none;html=1;entryX=0;entryY=0.5;entryDx=0;entryDy=0;fillColor=#1ba1e2;strokeColor=#006EAF;" parent="1" target="233" edge="1">
                    <mxGeometry width="50" height="50" relative="1" as="geometry">
                        <mxPoint x="600" y="260" as="sourcePoint"/>
                        <mxPoint x="682" y="240" as="targetPoint"/>
                        <Array as="points">
                            <mxPoint x="600" y="242"/>
                        </Array>
                    </mxGeometry>
                </mxCell>
                <mxCell id="235" value="TH0" style="text;html=1;strokeColor=none;fillColor=none;align=center;verticalAlign=middle;whiteSpace=wrap;rounded=0;" parent="1" vertex="1">
                    <mxGeometry x="1384" y="322.5" width="21" height="13" as="geometry"/>
                </mxCell>
                <mxCell id="r3FgKxrRIFfHUx7xBJCp-8" value="&lt;span style=&quot;color: rgb(0 , 0 , 0) ; font-size: 10px&quot;&gt;PD1&lt;/span&gt;" style="ellipse;whiteSpace=wrap;html=1;aspect=fixed;fillColor=#ffe6cc;strokeColor=#d79b00;" parent="1" vertex="1">
                    <mxGeometry x="1019" y="308" width="20" height="20" as="geometry"/>
                </mxCell>
                <mxCell id="236" value="TE2" style="text;html=1;strokeColor=none;fillColor=none;align=center;verticalAlign=middle;whiteSpace=wrap;rounded=0;rotation=0;" parent="1" vertex="1">
                    <mxGeometry x="1138" y="195.5" width="36" height="14.5" as="geometry"/>
                </mxCell>
                <mxCell id="237" value="TE1" style="text;html=1;strokeColor=none;fillColor=none;align=center;verticalAlign=middle;whiteSpace=wrap;rounded=0;rotation=0;" parent="1" vertex="1">
                    <mxGeometry x="1138" y="143" width="36" height="13" as="geometry"/>
                </mxCell>
                <mxCell id="238" value="TE3" style="text;html=1;strokeColor=none;fillColor=none;align=center;verticalAlign=middle;whiteSpace=wrap;rounded=0;rotation=-90;" parent="1" vertex="1">
                    <mxGeometry x="1266.5" y="207" width="36" height="13" as="geometry"/>
                </mxCell>
                <mxCell id="241" value="TG1" style="text;html=1;strokeColor=none;fillColor=none;align=center;verticalAlign=middle;whiteSpace=wrap;rounded=0;rotation=-45;" parent="1" vertex="1">
                    <mxGeometry x="1420" y="240.5" width="35" height="19" as="geometry"/>
                </mxCell>
                <mxCell id="242" value="TG2" style="text;html=1;strokeColor=none;fillColor=none;align=center;verticalAlign=middle;whiteSpace=wrap;rounded=0;rotation=-45;" parent="1" vertex="1">
                    <mxGeometry x="1455.54" y="267.25" width="35" height="19" as="geometry"/>
                </mxCell>
                <mxCell id="243" value="TG3" style="text;html=1;strokeColor=none;fillColor=none;align=center;verticalAlign=middle;whiteSpace=wrap;rounded=0;rotation=55;" parent="1" vertex="1">
                    <mxGeometry x="1513.5" y="176" width="24" height="15" as="geometry"/>
                </mxCell>
                <mxCell id="244" value="TG4" style="text;html=1;strokeColor=none;fillColor=none;align=center;verticalAlign=middle;whiteSpace=wrap;rounded=0;" parent="1" vertex="1">
                    <mxGeometry x="1666" y="132" width="35" height="19" as="geometry"/>
                </mxCell>
                <mxCell id="245" value="TA7" style="text;html=1;strokeColor=none;fillColor=none;align=center;verticalAlign=middle;whiteSpace=wrap;rounded=0;" parent="1" vertex="1">
                    <mxGeometry x="377" y="294" width="20" height="15" as="geometry"/>
                </mxCell>
                <mxCell id="246" value="" style="whiteSpace=wrap;html=1;aspect=fixed;labelBackgroundColor=none;fontSize=10;strokeColor=#d6b656;fillColor=#fff2cc;rotation=330;" parent="1" vertex="1">
                    <mxGeometry x="282" y="298" width="7" height="7" as="geometry"/>
                </mxCell>
                <mxCell id="49" value="TA3" style="text;html=1;strokeColor=none;fillColor=none;align=center;verticalAlign=middle;whiteSpace=wrap;rounded=0;rotation=-30;" parent="1" vertex="1">
                    <mxGeometry x="261" y="286.25" width="38" height="13" as="geometry"/>
                </mxCell>
                <mxCell id="247" value="" style="whiteSpace=wrap;html=1;aspect=fixed;labelBackgroundColor=none;fontSize=10;strokeColor=#d6b656;fillColor=#fff2cc;rotation=330;" parent="1" vertex="1">
                    <mxGeometry x="281.5" y="337" width="7" height="7" as="geometry"/>
                </mxCell>
                <mxCell id="r3FgKxrRIFfHUx7xBJCp-29" value="TA5" style="text;html=1;strokeColor=none;fillColor=none;align=center;verticalAlign=middle;whiteSpace=wrap;rounded=0;rotation=-35;" parent="1" vertex="1">
                    <mxGeometry x="281.5" y="343" width="26" height="16" as="geometry"/>
                </mxCell>
                <mxCell id="248" value="TG5" style="text;html=1;strokeColor=none;fillColor=none;align=center;verticalAlign=middle;whiteSpace=wrap;rounded=0;" parent="1" vertex="1">
                    <mxGeometry x="1672" y="180" width="24" height="11" as="geometry"/>
                </mxCell>
                <mxCell id="250" value="&lt;span style=&quot;font-size: 10px&quot;&gt;SG4&lt;/span&gt;" style="ellipse;whiteSpace=wrap;html=1;fillColor=#1ba1e2;fontColor=#ffffff;strokeColor=#006EAF;direction=east;rotation=-90;" parent="1" vertex="1">
                    <mxGeometry x="1484.5" y="195" width="22" height="16" as="geometry"/>
                </mxCell>
                <mxCell id="253" value="" style="endArrow=none;dashed=1;html=1;dashPattern=1 4;" parent="1" edge="1">
                    <mxGeometry width="50" height="50" relative="1" as="geometry">
                        <mxPoint x="400" y="280" as="sourcePoint"/>
                        <mxPoint x="370" y="280" as="targetPoint"/>
                    </mxGeometry>
                </mxCell>
                <mxCell id="256" value="" style="endArrow=none;dashed=1;html=1;dashPattern=1 4;strokeWidth=1;fillColor=#d5e8d4;strokeColor=#82b366;" parent="1" edge="1">
                    <mxGeometry width="50" height="50" relative="1" as="geometry">
                        <mxPoint x="372" y="320" as="sourcePoint"/>
                        <mxPoint x="402" y="320" as="targetPoint"/>
                    </mxGeometry>
                </mxCell>
                <mxCell id="257" value="" style="endArrow=none;html=1;rounded=0;fillColor=#d5e8d4;strokeColor=#82b366;endFill=1;startArrow=none;exitX=1;exitY=0.5;exitDx=0;exitDy=0;entryX=0;entryY=0.5;entryDx=0;entryDy=0;" parent="1" source="131" target="r3FgKxrRIFfHUx7xBJCp-12" edge="1">
                    <mxGeometry width="50" height="50" relative="1" as="geometry">
                        <mxPoint x="337.5" y="329" as="sourcePoint"/>
                        <mxPoint x="380" y="329" as="targetPoint"/>
                        <Array as="points"/>
                    </mxGeometry>
                </mxCell>
                <mxCell id="183" value="" style="whiteSpace=wrap;html=1;aspect=fixed;labelBackgroundColor=none;fontSize=10;strokeColor=#d6b656;fillColor=#fff2cc;rotation=0;" parent="1" vertex="1">
                    <mxGeometry x="286" y="317" width="7" height="7" as="geometry"/>
                </mxCell>
                <mxCell id="258" value="" style="ellipse;whiteSpace=wrap;html=1;fillColor=#1ba1e2;fontColor=#ffffff;strokeColor=#006EAF;direction=east;" parent="1" vertex="1">
                    <mxGeometry x="374" y="269" width="7" height="3.5" as="geometry"/>
                </mxCell>
                <mxCell id="259" value="" style="endArrow=none;html=1;entryX=0;entryY=0.5;entryDx=0;entryDy=0;fillColor=#1ba1e2;strokeColor=#006EAF;" parent="1" target="258" edge="1">
                    <mxGeometry width="50" height="50" relative="1" as="geometry">
                        <mxPoint x="371" y="280" as="sourcePoint"/>
                        <mxPoint x="450" y="274.5" as="targetPoint"/>
                        <Array as="points">
                            <mxPoint x="371" y="271"/>
                        </Array>
                    </mxGeometry>
                </mxCell>
                <mxCell id="260" value="" style="ellipse;whiteSpace=wrap;html=1;fillColor=#1ba1e2;fontColor=#ffffff;strokeColor=#006EAF;direction=east;" parent="1" vertex="1">
                    <mxGeometry x="386" y="269" width="7" height="3.5" as="geometry"/>
                </mxCell>
                <mxCell id="261" value="" style="endArrow=none;html=1;entryX=0;entryY=0.5;entryDx=0;entryDy=0;fillColor=#1ba1e2;strokeColor=#006EAF;" parent="1" target="260" edge="1">
                    <mxGeometry width="50" height="50" relative="1" as="geometry">
                        <mxPoint x="383" y="280" as="sourcePoint"/>
                        <mxPoint x="462" y="274.5" as="targetPoint"/>
                        <Array as="points">
                            <mxPoint x="383" y="271"/>
                        </Array>
                    </mxGeometry>
                </mxCell>
                <mxCell id="262" value="" style="ellipse;whiteSpace=wrap;html=1;fillColor=#1ba1e2;fontColor=#ffffff;strokeColor=#006EAF;direction=east;" parent="1" vertex="1">
                    <mxGeometry x="398" y="269" width="7" height="3.5" as="geometry"/>
                </mxCell>
                <mxCell id="263" value="" style="endArrow=none;html=1;entryX=0;entryY=0.5;entryDx=0;entryDy=0;fillColor=#1ba1e2;strokeColor=#006EAF;" parent="1" target="262" edge="1">
                    <mxGeometry width="50" height="50" relative="1" as="geometry">
                        <mxPoint x="395" y="280" as="sourcePoint"/>
                        <mxPoint x="474" y="274.5" as="targetPoint"/>
                        <Array as="points">
                            <mxPoint x="395" y="271"/>
                        </Array>
                    </mxGeometry>
                </mxCell>
                <mxCell id="266" value="" style="ellipse;whiteSpace=wrap;html=1;fillColor=#1ba1e2;fontColor=#ffffff;strokeColor=#006EAF;direction=east;" parent="1" vertex="1">
                    <mxGeometry x="374" y="308" width="7" height="3.5" as="geometry"/>
                </mxCell>
                <mxCell id="267" value="" style="endArrow=none;html=1;entryX=0;entryY=0.5;entryDx=0;entryDy=0;fillColor=#1ba1e2;strokeColor=#006EAF;" parent="1" target="266" edge="1">
                    <mxGeometry width="50" height="50" relative="1" as="geometry">
                        <mxPoint x="371" y="319" as="sourcePoint"/>
                        <mxPoint x="450" y="313.5" as="targetPoint"/>
                        <Array as="points">
                            <mxPoint x="371" y="310"/>
                        </Array>
                    </mxGeometry>
                </mxCell>
                <mxCell id="268" value="" style="ellipse;whiteSpace=wrap;html=1;fillColor=#1ba1e2;fontColor=#ffffff;strokeColor=#006EAF;direction=east;" parent="1" vertex="1">
                    <mxGeometry x="386" y="308" width="7" height="3.5" as="geometry"/>
                </mxCell>
                <mxCell id="269" value="" style="endArrow=none;html=1;entryX=0;entryY=0.5;entryDx=0;entryDy=0;fillColor=#1ba1e2;strokeColor=#006EAF;" parent="1" target="268" edge="1">
                    <mxGeometry width="50" height="50" relative="1" as="geometry">
                        <mxPoint x="382.99999999999994" y="319" as="sourcePoint"/>
                        <mxPoint x="462" y="313.5" as="targetPoint"/>
                        <Array as="points">
                            <mxPoint x="383" y="310"/>
                        </Array>
                    </mxGeometry>
                </mxCell>
                <mxCell id="270" value="" style="ellipse;whiteSpace=wrap;html=1;fillColor=#1ba1e2;fontColor=#ffffff;strokeColor=#006EAF;direction=east;" parent="1" vertex="1">
                    <mxGeometry x="398" y="308" width="7" height="3.5" as="geometry"/>
                </mxCell>
                <mxCell id="271" value="" style="endArrow=none;html=1;entryX=0;entryY=0.5;entryDx=0;entryDy=0;fillColor=#1ba1e2;strokeColor=#006EAF;" parent="1" target="270" edge="1">
                    <mxGeometry width="50" height="50" relative="1" as="geometry">
                        <mxPoint x="395.00000000000006" y="319" as="sourcePoint"/>
                        <mxPoint x="474" y="313.5" as="targetPoint"/>
                        <Array as="points">
                            <mxPoint x="395" y="310"/>
                        </Array>
                    </mxGeometry>
                </mxCell>
                <mxCell id="277" value="" style="ellipse;whiteSpace=wrap;html=1;fillColor=#1ba1e2;fontColor=#ffffff;strokeColor=#006EAF;direction=east;" parent="1" vertex="1">
                    <mxGeometry x="365" y="329.5" width="7" height="3.5" as="geometry"/>
                </mxCell>
                <mxCell id="278" value="" style="endArrow=none;html=1;entryX=1;entryY=0.5;entryDx=0;entryDy=0;fillColor=#1ba1e2;strokeColor=#006EAF;" parent="1" target="277" edge="1">
                    <mxGeometry width="50" height="50" relative="1" as="geometry">
                        <mxPoint x="375" y="321" as="sourcePoint"/>
                        <mxPoint x="431" y="326.5" as="targetPoint"/>
                        <Array as="points">
                            <mxPoint x="375" y="331"/>
                        </Array>
                    </mxGeometry>
                </mxCell>
                <mxCell id="279" value="" style="ellipse;whiteSpace=wrap;html=1;fillColor=#1ba1e2;fontColor=#ffffff;strokeColor=#006EAF;direction=east;" parent="1" vertex="1">
                    <mxGeometry x="377" y="329.5" width="7" height="3.5" as="geometry"/>
                </mxCell>
                <mxCell id="280" value="" style="endArrow=none;html=1;entryX=1;entryY=0.5;entryDx=0;entryDy=0;fillColor=#1ba1e2;strokeColor=#006EAF;" parent="1" target="279" edge="1">
                    <mxGeometry width="50" height="50" relative="1" as="geometry">
                        <mxPoint x="387" y="321" as="sourcePoint"/>
                        <mxPoint x="443" y="326.5" as="targetPoint"/>
                        <Array as="points">
                            <mxPoint x="387" y="331"/>
                        </Array>
                    </mxGeometry>
                </mxCell>
                <mxCell id="281" value="" style="ellipse;whiteSpace=wrap;html=1;fillColor=#1ba1e2;fontColor=#ffffff;strokeColor=#006EAF;direction=east;" parent="1" vertex="1">
                    <mxGeometry x="389" y="329.5" width="7" height="3.5" as="geometry"/>
                </mxCell>
                <mxCell id="282" value="" style="endArrow=none;html=1;entryX=1;entryY=0.5;entryDx=0;entryDy=0;fillColor=#1ba1e2;strokeColor=#006EAF;" parent="1" target="281" edge="1">
                    <mxGeometry width="50" height="50" relative="1" as="geometry">
                        <mxPoint x="399" y="321" as="sourcePoint"/>
                        <mxPoint x="455" y="326.5" as="targetPoint"/>
                        <Array as="points">
                            <mxPoint x="399" y="331"/>
                        </Array>
                    </mxGeometry>
                </mxCell>
                <mxCell id="283" value="" style="ellipse;whiteSpace=wrap;html=1;fillColor=#1ba1e2;fontColor=#ffffff;strokeColor=#006EAF;direction=east;" parent="1" vertex="1">
                    <mxGeometry x="365" y="288.5" width="7" height="3.5" as="geometry"/>
                </mxCell>
                <mxCell id="284" value="" style="endArrow=none;html=1;entryX=1;entryY=0.5;entryDx=0;entryDy=0;fillColor=#1ba1e2;strokeColor=#006EAF;" parent="1" target="283" edge="1">
                    <mxGeometry width="50" height="50" relative="1" as="geometry">
                        <mxPoint x="375" y="280" as="sourcePoint"/>
                        <mxPoint x="431" y="285.5" as="targetPoint"/>
                        <Array as="points">
                            <mxPoint x="375" y="290"/>
                        </Array>
                    </mxGeometry>
                </mxCell>
                <mxCell id="285" value="" style="ellipse;whiteSpace=wrap;html=1;fillColor=#1ba1e2;fontColor=#ffffff;strokeColor=#006EAF;direction=east;" parent="1" vertex="1">
                    <mxGeometry x="377" y="288.5" width="7" height="3.5" as="geometry"/>
                </mxCell>
                <mxCell id="286" value="" style="endArrow=none;html=1;entryX=1;entryY=0.5;entryDx=0;entryDy=0;fillColor=#1ba1e2;strokeColor=#006EAF;" parent="1" target="285" edge="1">
                    <mxGeometry width="50" height="50" relative="1" as="geometry">
                        <mxPoint x="387" y="280" as="sourcePoint"/>
                        <mxPoint x="443" y="285.5" as="targetPoint"/>
                        <Array as="points">
                            <mxPoint x="387" y="290"/>
                        </Array>
                    </mxGeometry>
                </mxCell>
                <mxCell id="287" value="" style="ellipse;whiteSpace=wrap;html=1;fillColor=#1ba1e2;fontColor=#ffffff;strokeColor=#006EAF;direction=east;" parent="1" vertex="1">
                    <mxGeometry x="389" y="288.5" width="7" height="3.5" as="geometry"/>
                </mxCell>
                <mxCell id="288" value="" style="endArrow=none;html=1;entryX=1;entryY=0.5;entryDx=0;entryDy=0;fillColor=#1ba1e2;strokeColor=#006EAF;" parent="1" target="287" edge="1">
                    <mxGeometry width="50" height="50" relative="1" as="geometry">
                        <mxPoint x="399" y="280" as="sourcePoint"/>
                        <mxPoint x="455" y="285.5" as="targetPoint"/>
                        <Array as="points">
                            <mxPoint x="399" y="290"/>
                        </Array>
                    </mxGeometry>
                </mxCell>
                <mxCell id="289" value="" style="endArrow=none;dashed=1;html=1;dashPattern=1 4;" parent="1" edge="1">
                    <mxGeometry width="50" height="50" relative="1" as="geometry">
                        <mxPoint x="760" y="279" as="sourcePoint"/>
                        <mxPoint x="710" y="279" as="targetPoint"/>
                    </mxGeometry>
                </mxCell>
                <mxCell id="290" value="" style="ellipse;whiteSpace=wrap;html=1;fillColor=#1ba1e2;fontColor=#ffffff;strokeColor=#006EAF;direction=east;" parent="1" vertex="1">
                    <mxGeometry x="724" y="268.25" width="7" height="3.5" as="geometry"/>
                </mxCell>
                <mxCell id="291" value="" style="endArrow=none;html=1;entryX=0;entryY=0.5;entryDx=0;entryDy=0;fillColor=#1ba1e2;strokeColor=#006EAF;" parent="1" target="290" edge="1">
                    <mxGeometry width="50" height="50" relative="1" as="geometry">
                        <mxPoint x="721" y="279.25" as="sourcePoint"/>
                        <mxPoint x="800" y="273.75" as="targetPoint"/>
                        <Array as="points">
                            <mxPoint x="721" y="270.25"/>
                        </Array>
                    </mxGeometry>
                </mxCell>
                <mxCell id="292" value="" style="ellipse;whiteSpace=wrap;html=1;fillColor=#1ba1e2;fontColor=#ffffff;strokeColor=#006EAF;direction=east;" parent="1" vertex="1">
                    <mxGeometry x="736" y="268.25" width="7" height="3.5" as="geometry"/>
                </mxCell>
                <mxCell id="293" value="" style="endArrow=none;html=1;entryX=0;entryY=0.5;entryDx=0;entryDy=0;fillColor=#1ba1e2;strokeColor=#006EAF;" parent="1" target="292" edge="1">
                    <mxGeometry width="50" height="50" relative="1" as="geometry">
                        <mxPoint x="733" y="279.25" as="sourcePoint"/>
                        <mxPoint x="812" y="273.75" as="targetPoint"/>
                        <Array as="points">
                            <mxPoint x="733" y="270.25"/>
                        </Array>
                    </mxGeometry>
                </mxCell>
                <mxCell id="294" value="" style="ellipse;whiteSpace=wrap;html=1;fillColor=#1ba1e2;fontColor=#ffffff;strokeColor=#006EAF;direction=east;" parent="1" vertex="1">
                    <mxGeometry x="748" y="268.25" width="7" height="3.5" as="geometry"/>
                </mxCell>
                <mxCell id="295" value="" style="endArrow=none;html=1;entryX=0;entryY=0.5;entryDx=0;entryDy=0;fillColor=#1ba1e2;strokeColor=#006EAF;" parent="1" target="294" edge="1">
                    <mxGeometry width="50" height="50" relative="1" as="geometry">
                        <mxPoint x="745" y="279.25" as="sourcePoint"/>
                        <mxPoint x="824" y="273.75" as="targetPoint"/>
                        <Array as="points">
                            <mxPoint x="745" y="270.25"/>
                        </Array>
                    </mxGeometry>
                </mxCell>
                <mxCell id="296" value="" style="ellipse;whiteSpace=wrap;html=1;fillColor=#1ba1e2;fontColor=#ffffff;strokeColor=#006EAF;direction=east;" parent="1" vertex="1">
                    <mxGeometry x="715" y="287.75" width="7" height="3.5" as="geometry"/>
                </mxCell>
                <mxCell id="297" value="" style="endArrow=none;html=1;entryX=1;entryY=0.5;entryDx=0;entryDy=0;fillColor=#1ba1e2;strokeColor=#006EAF;" parent="1" target="296" edge="1">
                    <mxGeometry width="50" height="50" relative="1" as="geometry">
                        <mxPoint x="725" y="279.25" as="sourcePoint"/>
                        <mxPoint x="781" y="284.75" as="targetPoint"/>
                        <Array as="points">
                            <mxPoint x="725" y="289.25"/>
                        </Array>
                    </mxGeometry>
                </mxCell>
                <mxCell id="298" value="" style="ellipse;whiteSpace=wrap;html=1;fillColor=#1ba1e2;fontColor=#ffffff;strokeColor=#006EAF;direction=east;" parent="1" vertex="1">
                    <mxGeometry x="727" y="287.75" width="7" height="3.5" as="geometry"/>
                </mxCell>
                <mxCell id="299" value="" style="endArrow=none;html=1;entryX=1;entryY=0.5;entryDx=0;entryDy=0;fillColor=#1ba1e2;strokeColor=#006EAF;" parent="1" target="298" edge="1">
                    <mxGeometry width="50" height="50" relative="1" as="geometry">
                        <mxPoint x="737" y="279.25" as="sourcePoint"/>
                        <mxPoint x="793" y="284.75" as="targetPoint"/>
                        <Array as="points">
                            <mxPoint x="737" y="289.25"/>
                        </Array>
                    </mxGeometry>
                </mxCell>
                <mxCell id="300" value="" style="ellipse;whiteSpace=wrap;html=1;fillColor=#1ba1e2;fontColor=#ffffff;strokeColor=#006EAF;direction=east;" parent="1" vertex="1">
                    <mxGeometry x="739" y="287.75" width="7" height="3.5" as="geometry"/>
                </mxCell>
                <mxCell id="301" value="" style="endArrow=none;html=1;entryX=1;entryY=0.5;entryDx=0;entryDy=0;fillColor=#1ba1e2;strokeColor=#006EAF;" parent="1" target="300" edge="1">
                    <mxGeometry width="50" height="50" relative="1" as="geometry">
                        <mxPoint x="749" y="279.25" as="sourcePoint"/>
                        <mxPoint x="805" y="284.75" as="targetPoint"/>
                        <Array as="points">
                            <mxPoint x="749" y="289.25"/>
                        </Array>
                    </mxGeometry>
                </mxCell>
                <mxCell id="304" value="" style="endArrow=none;dashed=1;html=1;dashPattern=1 3;strokeWidth=1;fillColor=#d5e8d4;strokeColor=#82b366;" parent="1" edge="1">
                    <mxGeometry width="50" height="50" relative="1" as="geometry">
                        <mxPoint x="710" y="320" as="sourcePoint"/>
                        <mxPoint x="760" y="320" as="targetPoint"/>
                    </mxGeometry>
                </mxCell>
                <mxCell id="305" value="" style="ellipse;whiteSpace=wrap;html=1;fillColor=#1ba1e2;fontColor=#ffffff;strokeColor=#006EAF;direction=east;" parent="1" vertex="1">
                    <mxGeometry x="724" y="308.5" width="7" height="3.5" as="geometry"/>
                </mxCell>
                <mxCell id="306" value="" style="endArrow=none;html=1;entryX=0;entryY=0.5;entryDx=0;entryDy=0;fillColor=#1ba1e2;strokeColor=#006EAF;" parent="1" target="305" edge="1">
                    <mxGeometry width="50" height="50" relative="1" as="geometry">
                        <mxPoint x="721" y="319.5" as="sourcePoint"/>
                        <mxPoint x="800" y="314" as="targetPoint"/>
                        <Array as="points">
                            <mxPoint x="721" y="310.5"/>
                        </Array>
                    </mxGeometry>
                </mxCell>
                <mxCell id="307" value="" style="ellipse;whiteSpace=wrap;html=1;fillColor=#1ba1e2;fontColor=#ffffff;strokeColor=#006EAF;direction=east;" parent="1" vertex="1">
                    <mxGeometry x="736" y="308.5" width="7" height="3.5" as="geometry"/>
                </mxCell>
                <mxCell id="308" value="" style="endArrow=none;html=1;entryX=0;entryY=0.5;entryDx=0;entryDy=0;fillColor=#1ba1e2;strokeColor=#006EAF;" parent="1" target="307" edge="1">
                    <mxGeometry width="50" height="50" relative="1" as="geometry">
                        <mxPoint x="733" y="319.5" as="sourcePoint"/>
                        <mxPoint x="812" y="314" as="targetPoint"/>
                        <Array as="points">
                            <mxPoint x="733" y="310.5"/>
                        </Array>
                    </mxGeometry>
                </mxCell>
                <mxCell id="309" value="" style="ellipse;whiteSpace=wrap;html=1;fillColor=#1ba1e2;fontColor=#ffffff;strokeColor=#006EAF;direction=east;" parent="1" vertex="1">
                    <mxGeometry x="748" y="308.5" width="7" height="3.5" as="geometry"/>
                </mxCell>
                <mxCell id="310" value="" style="endArrow=none;html=1;entryX=0;entryY=0.5;entryDx=0;entryDy=0;fillColor=#1ba1e2;strokeColor=#006EAF;" parent="1" target="309" edge="1">
                    <mxGeometry width="50" height="50" relative="1" as="geometry">
                        <mxPoint x="745" y="319.5" as="sourcePoint"/>
                        <mxPoint x="824" y="314" as="targetPoint"/>
                        <Array as="points">
                            <mxPoint x="745" y="310.5"/>
                        </Array>
                    </mxGeometry>
                </mxCell>
                <mxCell id="311" value="" style="ellipse;whiteSpace=wrap;html=1;fillColor=#1ba1e2;fontColor=#ffffff;strokeColor=#006EAF;direction=east;" parent="1" vertex="1">
                    <mxGeometry x="715" y="328" width="7" height="3.5" as="geometry"/>
                </mxCell>
                <mxCell id="312" value="" style="endArrow=none;html=1;entryX=1;entryY=0.5;entryDx=0;entryDy=0;fillColor=#1ba1e2;strokeColor=#006EAF;" parent="1" target="311" edge="1">
                    <mxGeometry width="50" height="50" relative="1" as="geometry">
                        <mxPoint x="725" y="319.5" as="sourcePoint"/>
                        <mxPoint x="781" y="325" as="targetPoint"/>
                        <Array as="points">
                            <mxPoint x="725" y="329.5"/>
                        </Array>
                    </mxGeometry>
                </mxCell>
                <mxCell id="313" value="" style="ellipse;whiteSpace=wrap;html=1;fillColor=#1ba1e2;fontColor=#ffffff;strokeColor=#006EAF;direction=east;" parent="1" vertex="1">
                    <mxGeometry x="727" y="328" width="7" height="3.5" as="geometry"/>
                </mxCell>
                <mxCell id="314" value="" style="endArrow=none;html=1;entryX=1;entryY=0.5;entryDx=0;entryDy=0;fillColor=#1ba1e2;strokeColor=#006EAF;" parent="1" target="313" edge="1">
                    <mxGeometry width="50" height="50" relative="1" as="geometry">
                        <mxPoint x="737" y="319.5" as="sourcePoint"/>
                        <mxPoint x="793" y="325" as="targetPoint"/>
                        <Array as="points">
                            <mxPoint x="737" y="329.5"/>
                        </Array>
                    </mxGeometry>
                </mxCell>
                <mxCell id="315" value="" style="ellipse;whiteSpace=wrap;html=1;fillColor=#1ba1e2;fontColor=#ffffff;strokeColor=#006EAF;direction=east;" parent="1" vertex="1">
                    <mxGeometry x="739" y="328" width="7" height="3.5" as="geometry"/>
                </mxCell>
                <mxCell id="316" value="" style="endArrow=none;html=1;entryX=1;entryY=0.5;entryDx=0;entryDy=0;fillColor=#1ba1e2;strokeColor=#006EAF;" parent="1" target="315" edge="1">
                    <mxGeometry width="50" height="50" relative="1" as="geometry">
                        <mxPoint x="749" y="319.5" as="sourcePoint"/>
                        <mxPoint x="805" y="325" as="targetPoint"/>
                        <Array as="points">
                            <mxPoint x="749" y="329.5"/>
                        </Array>
                    </mxGeometry>
                </mxCell>
            </root>
        </mxGraphModel>
    </diagram>
</mxfile>